<svg id="SvgjsSvg1001" width="288" height="288" xmlns="http://www.w3.org/2000/svg" version="1.1" xmlns:xlink="http://www.w3.org/1999/xlink" xmlns:svgjs="http://svgjs.com/svgjs"><defs id="SvgjsDefs1002"></defs><g id="SvgjsG1008"><svg xmlns="http://www.w3.org/2000/svg" viewBox="0 0 345 345" width="288" height="288"><path fill="#4397e6" fill-rule="evenodd" d="M149.5 20.621C90.276 26.974 40.773 65.77 21.598 120.857c-27.068 77.765 14.419 163.451 92.259 190.545 50.325 17.517 110.255 5.843 147.643-28.759l6-5.553-12.25-.045L243 277v-9.913l-7.317 5.25c-57.182 41.026-138.007 26.084-177.154-32.751C3.021 156.163 62.772 44.7 163 44.7c60.844 0 109.461 40.004 123.415 101.55.623 2.75.624 2.75 9.604 2.75H305v11h3.5c4.217 0 4.404-1.475 1.975-15.619-10.439-60.785-58.408-109.647-119.153-121.369-10.397-2.007-33.233-3.312-41.822-2.391m-41.259 63.317c-6.912 4.335-9.553 13.501-4.79 16.622 5.565 3.646 10.204-2.146 6.508-8.126-1.669-2.7-1.855-3.76-.955-5.442 2.683-5.012 10.241-4.139 12.801 1.48 3.923 8.61.089 17.134-18.942 42.105-.451.592-1.511 2.729-2.355 4.75L98.973 139h30.714l1.791-8.532c2.038-9.713 1.699-11.108-1.46-5.996-3.185 5.152-6.551 6.528-15.968 6.528-4.428 0-8.05-.358-8.05-.795 0-1.184 8.538-9.867 16.604-16.888 11.668-10.155 13.739-19.44 6.051-27.129-4.662-4.662-14.789-5.778-20.414-2.25m44.255 17.677c-6.598 10.788-12.141 20.238-12.319 21-.259 1.106 1.605 1.385 9.25 1.385H159v5.3c0 5.543-1.176 7.7-4.2 7.7-.99 0-1.8.45-1.8 1 0 .606 4.333 1 11 1s11-.394 11-1c0-.55-1.035-1-2.3-1-3.532 0-4.7-1.914-4.7-7.7V124h3.5c1.925 0 3.5-.45 3.5-1s-1.575-1-3.5-1H168v-20c0-26.127.235-26.121-15.504-.385M151 108.196c-4.125 6.707-7.65 12.557-7.833 13-.184.442 3.304.804 7.75.804H159v-13c0-7.15-.113-13-.25-12.999-.137 0-3.625 5.488-7.75 12.195m35-4.29c-2.494.705-2.494.708-.25 1.307 3.11.829 3.57 30.919.5 32.707-1.332.776-.332 1.026 4.191 1.05 5.041.025 5.678-.162 4.206-1.239-1.455-1.064-1.688-2.634-1.441-9.729.288-8.293.35-8.479 3.141-9.458 4.412-1.547 5.653 1.009 5.653 11.647V139h4.191c3.536 0 3.942-.195 2.598-1.25-1.177-.924-1.705-3.575-2.02-10.152-.577-12.047-5.298-15.922-12.019-9.865-1.653 1.489-1.75 1.123-1.75-6.578 0-8.937-.221-9.165-7-7.249M186 158v7h-7.248l.45-5.417c.414-4.995.273-5.45-1.807-5.848-2.162-.413-2.257-.145-2.278 6.387-.021 6.777 1.041 9.12 3.17 6.991.612-.612 2.598-1.113 4.413-1.113h3.3v15H176.815l.342-5.491c.332-5.319-.26-6.509-3.239-6.509-.505 0-.918 3.6-.918 8 0 6.517.284 8 1.531 8 .843 0 1.791-.675 2.107-1.5.841-2.191 21.877-2.207 22.717-.017.313.816 1.226 1.231 2.028.923 2.018-.774 2.723-14.158.785-14.898-2.762-1.054-3.168-.35-3.168 5.492v6h-9v-15h3.3c1.815 0 3.84.54 4.5 1.2 1.91 1.91 2.992-.163 3.362-6.441.328-5.572-.241-6.759-3.244-6.759-.505 0-.918 2.475-.918 5.5v5.5H189.829l.336-6.491c.327-6.34-.178-7.509-3.247-7.509-.505 0-.918 3.15-.918 7m-55.5-4c1.893 2.092 4.5 2.692 4.5 1.035 0-1.096-3.251-3.035-5.089-3.035-.765 0-.545.747.589 2m83.065-1.105c-.305.493.131 1.158.967 1.479 1.268.487 1.474 2.638 1.244 12.999-.324 14.569.594 16.627 7.411 16.627 4.918 0 10.813-2.426 10.813-4.449 0-1.889.204-1.887-5-.051-9.519 3.358-11.426 1.46-10.439-10.387.393-4.724 1.072-9.832 1.507-11.35 1.167-4.07-4.414-8.248-6.503-4.868m-62.173 4.47c7.684 4.053 8.608 4.284 8.608 2.158 0-2.339-4.284-4.535-10.124-5.19l-5.376-.603 6.892 3.635m-22.642-.171c1.207 1.207 2.496 1.893 2.865 1.525.973-.973-1.582-3.719-3.46-3.719-1.285 0-1.169.431.595 2.194M278 161v6h-38v6c0 5.733.111 6 2.5 6 2.221 0 2.501.419 2.507 3.75.005 2.063.898 19.725 1.986 39.25s1.985 38.538 1.993 42.25L249 271h78l.008-6.75c.005-3.712.901-22.725 1.992-42.25s1.987-37.187 1.992-39.25c.007-3.331.287-3.75 2.508-3.75 2.389 0 2.5-.267 2.5-6v-6h-38v-12h-20v6m-174-1.601c0 3.152 2.647 3.841 9.998 2.601 8.595-1.449 10.116-1.016 9.526 2.712a3921.86 3921.86 0 0 0-1.001 6.395l-.56 3.606-7.216.605c-5.496.461-7.756.251-9.481-.88-2.603-1.705-2.922-.819-.796 2.216 1.357 1.937 2.184 2.063 10.75 1.646 11.252-.549 12.411-.835 10.876-2.684-1.263-1.522.292-11.066 2.185-13.416 2.481-3.08-1.214-4.121-10.54-2.969-6.455.798-9.413.784-11.25-.053-1.988-.906-2.491-.861-2.491.221M283 163v4h10v-8h-10v4m-134.145 2.07c1.295.519 3.614 1.84 5.154 2.937 3.558 2.533 4.991 2.524 4.991-.032 0-2.423-3.559-4.002-8.815-3.912-3.33.058-3.458.155-1.33 1.007m-.355 10.019c2.2 1.202 5.518 3.508 7.373 5.125 2.181 1.902 3.716 2.597 4.344 1.969 2.994-2.994-2.956-7.604-11.217-8.688l-4.5-.591 4 2.185m106.187 6.661c-.514.896 3.145 77.762 3.857 81 .538 2.449 3.208 3.059 4.029.921.644-1.679-3.312-80.44-4.105-81.723-.698-1.13-3.171-1.259-3.781-.198m15.805.263c-1.002 1.621 1.466 81.345 2.552 82.431.627.627 1.462.455 2.359-.487 1.3-1.363.429-77.505-.935-81.707-.487-1.501-3.098-1.657-3.976-.237m15.747 40.737c.227 36.328.456 41.75 1.761 41.75s1.534-5.422 1.761-41.75c.258-41.32.24-41.75-1.761-41.75s-2.019.43-1.761 41.75m15.325-40.574c-.657 2.027-2.399 80.091-1.82 81.599.279.728 1.239 1.184 2.132 1.013 3.162-.604 5.006-82.978 1.871-83.592-.964-.189-1.946.252-2.183.98m15.985-.256c-1.278 2.069-4.752 81.277-3.614 82.415 3.575 3.575 4.159-2.588 7.333-77.306.227-5.358-1.824-8.175-3.719-5.109M117.5 200.387c-18.518 8.77-21.937 36.044-6.284 50.118 16.897 15.191 40.056 1.888 40.077-23.022.014-16.305-11.058-29.463-24.793-29.463-2.2 0-6.25 1.065-9 2.367m39.5.113c0 .884.923 1.506 2.25 1.515 4.791.033 4.803.103 4.518 26.018l-.268 24.393-3.25.932c-6.145 1.761-3.227 2.642 8.75 2.642 7.333 0 12-.389 12-1 0-.55-.8-1-1.777-1-4.778 0-6.225-2.64-6.196-11.307.026-7.958.127-8.301 3.514-11.943 1.917-2.062 3.688-3.75 3.936-3.75.861 0 13.523 22.036 13.523 23.534 0 .83-1.125 2.021-2.5 2.648-4.788 2.182-2.417 2.818 10.5 2.818 13.94 0 15.691-.631 8.326-3-4.598-1.479-4.796-1.724-13.96-17.385l-9.296-15.884 6.003-6.616c7.838-8.638 11.438-11.115 16.149-11.115 2.692 0 3.778-.431 3.778-1.5 0-1.242-1.889-1.5-11-1.5s-11 .258-11 1.5c0 1.008 1.008 1.5 3.07 1.5 2.56 0 3.016.351 2.75 2.117-.299 1.975-21.422 25.591-23.07 25.792-.412.05-.75-5.669-.75-12.709 0-13.868.456-15.2 5.2-15.2 1.822 0 2.8-.524 2.8-1.5 0-1.25-2-1.5-12-1.5s-12 .25-12 1.5m-37.339 2.493c-10.806 9.488-11.471 36.908-1.156 47.674 5.518 5.759 9.681 5.967 15.433.77 10.841-9.794 10.484-38.714-.599-48.444-4.593-4.033-9.085-4.033-13.678 0" class="color2ea5e4 svgShape"></path></svg></g></svg>