<!DOCTYPE svg PUBLIC "-//W3C//DTD SVG 1.1//EN" "http://www.w3.org/Graphics/SVG/1.1/DTD/svg11.dtd">
<!-- Uploaded to: SVG Repo, www.svgrepo.com, Transformed by: SVG Repo Mixer Tools -->
<svg fill="#07dbdf" width="800px" height="800px" viewBox="0 0 100 100" data-name="Layer 1" id="Layer_1" xmlns="http://www.w3.org/2000/svg" stroke="#07dbdf">
<g id="SVGRepo_bgCarrier" stroke-width="0"/>
<g id="SVGRepo_tracerCarrier" stroke-linecap="round" stroke-linejoin="round"/>
<g id="SVGRepo_iconCarrier">
<path d="M84,91.44H16.32a1.5,1.5,0,0,1-1.5-1.5V35.86H9.12a1.5,1.5,0,0,1-.77-2.79L49.23,8.77a1.52,1.52,0,0,1,1.54,0l40.88,24.3a1.5,1.5,0,0,1-.77,2.79h-5.4V89.94A1.5,1.5,0,0,1,84,91.44Zm-66.16-3H82.48V34.36a1.5,1.5,0,0,1,1.5-1.5h1.44L50,11.81l-35.42,21h1.74a1.5,1.5,0,0,1,1.5,1.5Z"/>
<path d="M90.88,91.44H84a1.5,1.5,0,0,1,0-3h6.9a1.5,1.5,0,0,1,0,3Z"/>
<path d="M16.32,91.44H9.12a1.5,1.5,0,1,1,0-3h7.2a1.5,1.5,0,0,1,0,3Z"/>
<path d="M50,78.34a1.5,1.5,0,0,1-.89-.29,1.48,1.48,0,0,1-.61-1.21V45.91a1.48,1.48,0,0,1,1-1.43l24-7.52a1.5,1.5,0,0,1,2,1.44V69.33a1.48,1.48,0,0,1-1,1.43l-24,7.51A1.31,1.31,0,0,1,50,78.34ZM51.52,47V74.8l21-6.57V40.43Z"/>
<path d="M50,78.29a1.69,1.69,0,0,1-.45-.07l-24-7.52a1.49,1.49,0,0,1-1.05-1.43V38.34a1.5,1.5,0,0,1,1.5-1.5,1.43,1.43,0,0,1,.46.07l6.51,2a1.5,1.5,0,0,1-.9,2.87l-4.57-1.43V68.17l21.05,6.58V47l-6-1.88a1.5,1.5,0,0,1,.89-2.87l7.09,2.22a1.51,1.51,0,0,1,1.06,1.43V76.79A1.48,1.48,0,0,1,50.9,78,1.44,1.44,0,0,1,50,78.29Z"/>
<path d="M42.92,45.13a1.67,1.67,0,0,1-.44-.06L38,43.68l-.08,0L32,41.81a1.5,1.5,0,0,1,.9-2.87l5.85,1.84.07,0,4.49,1.4a1.5,1.5,0,0,1-.43,2.93Z"/>
<path d="M42.47,54.49,32.05,51.23a1.5,1.5,0,0,1,.89-2.87l10.41,3.26Z"/>
<path d="M26,39.84a1.51,1.51,0,0,1-1.38-.92,1.49,1.49,0,0,1,.81-2l11.73-4.88a1.5,1.5,0,0,1,1.15,2.77L26.56,39.73A1.7,1.7,0,0,1,26,39.84Z"/>
<path d="M38.42,43.73a1.5,1.5,0,0,1-.5-2.92l22.43-9.33a1.51,1.51,0,0,1,2,.81,1.49,1.49,0,0,1-.81,2L39,43.61A1.39,1.39,0,0,1,38.42,43.73Z"/>
<path d="M37.71,35A1.51,1.51,0,0,1,36.33,34a1.49,1.49,0,0,1,.81-2l12.4-5.16a1.5,1.5,0,1,1,1.15,2.77l-12.4,5.16A1.66,1.66,0,0,1,37.71,35Z"/>
<path d="M57.45,32.9a1.52,1.52,0,0,1-.59-.12l-7.33-3.09a1.5,1.5,0,1,1,1.17-2.77L58,30a1.5,1.5,0,0,1-.58,2.88Z"/>
<path d="M74,39.9a1.47,1.47,0,0,1-.58-.12l-16.59-7A1.5,1.5,0,1,1,58,30l16.58,7A1.5,1.5,0,0,1,74,39.9Z"/>
</g>
</svg>