<?xml version="1.0" standalone="no"?>
<!DOCTYPE svg PUBLIC "-//W3C//DTD SVG 20010904//EN"
 "http://www.w3.org/TR/2001/REC-SVG-20010904/DTD/svg10.dtd">
<svg version="1.0" xmlns="http://www.w3.org/2000/svg"
 width="168.000000pt" height="168.000000pt" viewBox="0 0 168.000000 168.000000"
 preserveAspectRatio="xMidYMid meet">

<g transform="translate(0.000000,168.000000) scale(0.100000,-0.100000)"
fill="#000000" stroke="none">
<path d="M518 1543 c-49 -31 -76 -136 -42 -164 23 -19 48 1 55 45 8 49 33 75
57 60 14 -9 18 -29 20 -113 l3 -101 -270 0 -270 0 -20 -26 c-26 -33 -26 -45
-2 -75 13 -18 21 -55 29 -141 12 -125 25 -163 68 -197 25 -20 38 -21 271 -21
l245 0 33 33 c39 39 51 79 60 207 5 70 12 100 26 118 24 31 24 43 -2 76 -16
20 -29 26 -59 26 l-38 0 -4 116 -3 116 -33 29 c-37 34 -82 38 -124 12z m176
-385 c-3 -24 -8 -85 -13 -135 -5 -56 -15 -102 -25 -118 l-16 -25 -225 0 -225
0 -16 25 c-11 17 -20 61 -25 123 -5 53 -10 114 -13 135 l-4 37 283 0 283 0 -4
-42z"/>
<path d="M1377 1292 c-34 -32 -307 -287 -607 -567 -553 -515 -580 -541 -580
-555 0 -11 29 -40 40 -40 8 0 1150 1065 1223 1141 32 33 36 42 27 59 -17 32
-37 24 -103 -38z"/>
<path d="M1241 625 c-70 -34 -77 -35 -186 -35 -147 0 -172 -5 -191 -42 -14
-27 -12 -41 36 -225 51 -197 63 -232 84 -245 6 -4 122 -8 258 -8 246 0 248 0
262 23 23 35 76 349 76 448 0 117 -3 119 -151 119 -110 0 -117 -1 -188 -35z
m159 -42 c0 -5 -20 -39 -43 -78 l-42 -70 -188 -3 c-106 -1 -187 1 -187 7 0 4
-3 22 -6 39 l-6 30 125 4 c121 4 128 5 194 40 63 33 153 51 153 31z m110 -56
c0 -52 -31 -258 -55 -364 -5 -23 -6 -23 -220 -23 l-214 0 -11 43 c-7 23 -20
72 -30 110 l-19 67 177 0 c219 0 217 -1 293 134 30 53 60 96 67 96 8 0 12 -19
12 -63z"/>
</g>
</svg>
