<svg id="SvgjsSvg1001" width="288" height="288" xmlns="http://www.w3.org/2000/svg" version="1.1" xmlns:xlink="http://www.w3.org/1999/xlink" xmlns:svgjs="http://svgjs.com/svgjs"><defs id="SvgjsDefs1002"></defs><g id="SvgjsG1008"><svg xmlns="http://www.w3.org/2000/svg" viewBox="0 0 413 413" width="288" height="288"><path d="M291.114,114.452l-74.069-55.029c-4.794-3.561-12.015-3.548-16.793,0.034l-73.412,55.01
		c-2.652,1.987-3.191,5.748-1.204,8.399c1.987,2.653,5.748,3.192,8.399,1.204l73.412-55.01c0.514-0.385,1.539-0.635,2.442-0.005
		l74.068,55.029c1.075,0.799,2.329,1.184,3.573,1.184c1.834,0,3.643-0.837,4.821-2.422
		C294.328,120.186,293.774,116.428,291.114,114.452z" fill="#2d6cdf" class="color000 svgShape"></path><path d="M408,243.893c0,0-62.375,0-83.166,0c-4.583,0-4.229-3.8-4.229-3.8V133.966c0,0-0.229-2.655,2.895-2.655
		c2.942,0,11.771,0,11.771,0c5.165,0,8.031-2.989,8.991-5.787c0.961-2.797,0.535-6.917-3.54-10.089L318.073,97.8
		c-1.073-1.021-1.26-2.242-1.26-2.864V55.135c0-6.341-5.159-11.5-11.5-11.5h-26.914c-6.341,0-11.5,5.159-11.5,11.5
		c0,0,0,0.717,0,0.956c0,2.209-1.535,0.67-1.535,0.67L216.417,18.65c-2.149-1.674-4.906-2.596-7.763-2.596s-5.613,0.922-7.764,2.596
		L76.587,115.435c-4.076,3.172-4.502,7.292-3.541,10.089c0.96,2.798,3.826,5.787,8.991,5.787c0,0,9.487,0,12.649,0
		c2.231,0,2.016,2.405,2.016,2.405v107.562c0,0,0.36,2.615-3.515,2.615c-22.047,0-88.187,0-88.187,0c-2.75,0-5,2.25-5,5v143.053
		c0,2.75,2.25,5,5,5h5c2.75,0,5-2.25,5-5V263.893c0-2.75,2.25-5,5-5h88.202h70.267h60.371h70.266H393c2.75,0,5,2.25,5,5v128.053
		c0,2.75,2.25,5,5,5h5c2.75,0,5-2.25,5-5V248.893C413,246.143,410.75,243.893,408,243.893z M281.899,59.53
		c0-0.875,0.872-0.895,0.872-0.895h17.935c0,0,1.107-0.043,1.107,1.145c0,5.795,0,16.39,0,21.854c0,1.375-0.762,0.693-0.762,0.693
		l-18.679-15.51c-0.178-0.229-0.474-0.475-0.474-1.008C281.899,65.809,281.899,61.099,281.899,59.53z M189.826,206.728
		c-0.003-0.088-0.068-9.02,5.132-14.402c2.957-3.061,7.171-4.548,12.883-4.548c18.583,0,19.545,15.962,19.55,19.112
		c-0.028,2.226-0.051,5.867-0.051,8.093l-0.006,25.918c0,0,0.166,2.992-3.522,2.992c-7.825,0-21.958,0-31.302,0
		c-2.677,0-2.542-2.057-2.542-2.057v-26.854C189.969,212.692,189.905,208.988,189.826,206.728z M245.75,243.893
		c-3.5,0-3.41-3.107-3.41-3.107v-25.803c0-2.175,0.023-5.732,0.049-7.907c0.02-1.516-0.098-15.091-9.833-24.946
		c-6.128-6.205-14.443-9.352-24.715-9.352c-9.855,0-17.819,3.07-23.67,9.126c-9.58,9.915-9.389,23.791-9.335,25.342
		c0.072,2.083,0.133,5.626,0.133,7.737v26.936c0,0,0.073,1.975-2.177,1.975c-14.526,0-43.034,0-58.105,0
		c-3.103,0-2.985-2.742-2.985-2.742v-113.34c0-5.79-4.488-9.752-9.876-11.386c-1.514-0.459-0.032-1.607-0.032-1.607l104.473-81.344
		c0,0,1.172-1.092,2.4-1.092c1.104,0,2.26,1.003,2.26,1.003l104.175,81.112c0,0,2.461,1.594-0.155,2.017
		c-5.339,0.863-9.341,5.693-9.341,11.297v112.203c0,0,0.311,3.879-4.104,3.879C287.564,243.893,260.714,243.893,245.75,243.893z" fill="#2d6cdf" class="color000 svgShape"></path><path d="M369.581,327.196h-39.32c-2.75,0-6.435,1.733-8.187,3.853l-24.824,30.008c-1.752,2.119-3.915,1.724-4.806-0.878
		l-12.419-36.277c-0.891-2.602-3.833-4.331-6.539-3.843l-34.563,6.24c-2.707,0.488-5.293-1.331-5.747-4.043l-7.117-42.48
		c-0.454-2.712-2.199-3.148-3.878-0.971l-62.678,81.332c-1.679,2.179-3.705,1.808-4.503-0.824l-20.547-67.75
		c-0.798-2.632-2.915-3.076-4.704-0.988l-32.163,37.538c-1.789,2.089-5.503,3.797-8.253,3.797H46.598c-2.75,0-5,2.25-5,5v2
		c0,2.75,2.25,5,5,5h48.258c2.75,0,6.464-1.708,8.253-3.797l21.511-25.106c1.789-2.088,3.906-1.644,4.704,0.988l20.957,69.102
		c0.798,2.632,2.824,3.003,4.503,0.824l60.109-77.998c1.679-2.178,3.424-1.74,3.878,0.972l4.578,27.33
		c0.454,2.712,3.04,4.532,5.747,4.044l36.377-6.568c2.706-0.488,5.648,1.241,6.539,3.843l16.019,46.797
		c0.891,2.602,3.054,2.997,4.807,0.878l34.883-42.168c1.753-2.119,5.438-3.853,8.188-3.853h33.674c2.75,0,5-2.25,5-5v-2
		C374.581,329.446,372.331,327.196,369.581,327.196z" fill="#2d6cdf" class="color000 svgShape"></path></svg></g></svg>