<?xml version="1.0" standalone="no"?>
<!DOCTYPE svg PUBLIC "-//W3C//DTD SVG 20010904//EN"
 "http://www.w3.org/TR/2001/REC-SVG-20010904/DTD/svg10.dtd">
<svg version="1.0" xmlns="http://www.w3.org/2000/svg"
 width="800.000000pt" height="800.000000pt" viewBox="0 0 800.000000 800.000000"
 preserveAspectRatio="xMidYMid meet">

<g transform="translate(0.000000,800.000000) scale(0.100000,-0.100000)"
fill="#000000" stroke="none">
<path d="M3470 7470 c-10 -6 32 -8 118 -4 96 4 137 2 147 -6 12 -10 15 -9 15
4 0 14 -17 16 -132 16 -73 0 -140 -5 -148 -10z"/>
<path d="M3760 7470 c0 -8 259 -25 266 -17 3 3 -34 8 -83 11 -48 4 -109 8
-135 10 -27 2 -48 0 -48 -4z"/>
<path d="M3235 7459 c-44 -5 -87 -10 -95 -13 -30 -8 59 -4 185 9 103 10 115
12 60 12 -38 0 -106 -3 -150 -8z"/>
<path d="M3773 7443 c9 -2 23 -2 30 0 6 3 -1 5 -18 5 -16 0 -22 -2 -12 -5z"/>
<path d="M4080 7440 c70 -12 74 -13 90 -10 21 3 -68 19 -105 18 -22 0 -17 -3
15 -8z"/>
<path d="M2986 7419 c-87 -18 -117 -29 -82 -29 15 0 48 7 181 38 77 19 -8 11
-99 -9z"/>
<path d="M4195 7420 c3 -5 17 -10 29 -10 40 0 271 -51 274 -61 5 -12 42 -12
42 0 0 9 -61 25 -239 62 -107 22 -114 23 -106 9z"/>
<path d="M4208 7393 c7 -3 16 -2 19 1 4 3 -2 6 -13 5 -11 0 -14 -3 -6 -6z"/>
<path d="M2760 7370 c-170 -48 -225 -65 -354 -113 -76 -29 -132 -53 -124 -55
8 -1 36 6 62 18 55 23 60 24 50 8 -4 -7 -3 -8 5 -4 6 4 9 12 6 17 -4 5 4 9 17
9 13 0 32 6 43 14 11 7 63 26 115 41 52 15 122 35 155 45 33 10 72 20 87 22
15 2 30 7 34 11 12 12 -27 6 -96 -13z"/>
<path d="M4288 7383 c7 -3 16 -2 19 1 4 3 -2 6 -13 5 -11 0 -14 -3 -6 -6z"/>
<path d="M3020 7376 c0 -2 7 -7 16 -10 8 -3 12 -2 9 4 -6 10 -25 14 -25 6z"/>
<path d="M4305 7370 c-13 -6 -15 -9 -5 -9 8 0 22 4 30 9 18 12 2 12 -25 0z"/>
<path d="M4566 7341 c6 -7 49 -23 95 -36 83 -23 227 -78 304 -116 22 -10 45
-19 50 -19 11 0 257 -120 265 -129 6 -7 76 -46 133 -75 23 -11 36 -24 33 -32
-3 -8 0 -11 9 -8 13 6 24 -1 66 -38 10 -10 23 -18 27 -18 5 0 17 -8 28 -17 22
-20 78 -53 89 -53 18 0 -205 153 -285 196 -30 16 -57 32 -60 35 -7 9 -252 131
-330 164 -36 15 -84 36 -107 46 -24 11 -49 19 -56 19 -7 0 -17 4 -22 9 -6 5
-57 23 -115 41 -58 18 -112 35 -120 38 -11 4 -12 2 -4 -7z"/>
<path d="M4800 7230 c0 -5 5 -10 11 -10 5 0 7 5 4 10 -3 6 -8 10 -11 10 -2 0
-4 -4 -4 -10z"/>
<path d="M2448 7213 c6 -2 18 -2 25 0 6 3 1 5 -13 5 -14 0 -19 -2 -12 -5z"/>
<path d="M4838 7213 c7 -3 16 -2 19 1 4 3 -2 6 -13 5 -11 0 -14 -3 -6 -6z"/>
<path d="M2181 7164 c-29 -14 -51 -27 -49 -29 7 -8 108 36 108 46 0 5 -1 9 -2
8 -2 0 -27 -12 -57 -25z"/>
<path d="M4998 7143 c7 -3 16 -2 19 1 4 3 -2 6 -13 5 -11 0 -14 -3 -6 -6z"/>
<path d="M5036 7132 c-2 -4 4 -8 14 -8 10 0 16 4 14 8 -3 4 -9 8 -14 8 -5 0
-11 -4 -14 -8z"/>
<path d="M2028 7088 c-90 -48 -98 -63 -12 -20 33 17 69 33 82 37 20 6 32 25
15 25 -5 0 -43 -19 -85 -42z"/>
<path d="M1855 6990 c-62 -36 -82 -53 -68 -57 6 -2 23 8 38 23 17 17 33 24 46
21 10 -3 17 -1 14 3 -3 5 5 16 17 24 37 26 7 17 -47 -14z"/>
<path d="M5358 6963 c7 -3 16 -2 19 1 4 3 -2 6 -13 5 -11 0 -14 -3 -6 -6z"/>
<path d="M1722 6908 c-34 -21 -38 -37 -4 -19 10 5 27 9 38 7 10 -2 13 -1 7 1
-7 3 -13 8 -13 13 0 5 6 11 13 13 6 3 8 5 2 5 -5 0 -25 -9 -43 -20z"/>
<path d="M1665 6868 c-5 -5 -19 -15 -30 -23 -11 -8 -15 -15 -9 -15 15 0 61 37
54 43 -3 3 -9 1 -15 -5z"/>
<path d="M1509 6752 c-127 -101 -220 -184 -215 -190 3 -2 37 24 76 59 39 35
77 66 83 69 7 3 28 19 47 37 84 77 83 76 125 74 14 0 16 1 5 6 -8 3 -17 10
-20 14 -3 4 -49 -27 -101 -69z"/>
<path d="M5680 6788 c0 -8 18 -25 40 -38 22 -14 40 -28 40 -32 0 -4 26 -26 58
-49 31 -23 59 -44 61 -46 2 -1 1 -6 -2 -9 -4 -4 -15 -1 -24 7 -16 13 -17 12
-4 -4 9 -11 21 -15 34 -11 15 5 19 3 14 -9 -4 -11 -2 -14 7 -11 8 3 26 -10 41
-30 15 -20 32 -36 38 -36 17 0 97 -91 90 -104 -3 -6 -2 -8 2 -4 10 10 95 -71
95 -90 0 -8 5 -10 12 -6 7 5 9 2 6 -7 -3 -8 0 -26 8 -40 7 -13 13 -20 14 -16
0 5 -5 17 -10 28 -6 10 -8 19 -4 19 12 0 52 -52 50 -64 -2 -6 -1 -8 1 -4 3 4
16 -6 29 -22 14 -16 23 -34 19 -40 -3 -6 0 -7 9 -4 9 3 16 2 16 -3 0 -6 29
-49 65 -96 36 -48 65 -91 65 -96 0 -6 6 -14 13 -18 8 -4 26 -29 41 -55 28 -49
58 -80 35 -37 -18 35 -62 102 -76 117 -7 7 -13 17 -13 21 0 4 -8 16 -18 27 -9
10 -25 32 -35 48 -77 118 -407 474 -541 582 -27 21 -54 44 -60 49 -6 6 -27 22
-48 37 -20 15 -43 35 -52 44 -13 12 -16 12 -16 2z"/>
<path d="M1560 6759 c-22 -18 -22 -19 -3 -10 12 6 25 16 28 21 9 15 3 12 -25
-11z"/>
<path d="M1470 6669 c0 -5 5 -7 10 -4 6 3 10 8 10 11 0 2 -4 4 -10 4 -5 0 -10
-5 -10 -11z"/>
<path d="M5780 6660 c0 -5 5 -10 10 -10 6 0 10 5 10 10 0 6 -4 10 -10 10 -5 0
-10 -4 -10 -10z"/>
<path d="M1426 6652 c-3 -4 4 -9 15 -9 23 -2 25 3 4 10 -8 4 -16 3 -19 -1z"/>
<path d="M4205 6630 c27 -12 43 -12 25 0 -8 5 -22 9 -30 9 -10 0 -8 -3 5 -9z"/>
<path d="M4160 6619 c0 -5 11 -9 25 -9 14 0 25 2 25 4 0 2 -11 6 -25 8 -14 3
-25 1 -25 -3z"/>
<path d="M4300 6620 c21 -7 18 -8 -20 -9 -25 -1 -65 -7 -90 -14 -51 -14 -150
-66 -150 -79 0 -4 -4 -8 -9 -8 -15 0 -56 -42 -74 -75 -18 -34 -57 -145 -57
-163 0 -7 4 -12 9 -12 5 0 11 21 15 48 18 136 164 267 320 288 54 8 146 -10
210 -40 97 -45 181 -156 193 -257 3 -26 9 -46 14 -44 24 16 -31 164 -80 216
-17 17 -31 35 -31 38 0 12 -129 81 -152 82 -23 1 -23 1 2 9 18 6 11 7 -21 4
-36 -5 -47 -2 -52 10 -4 9 -17 16 -29 15 -22 -1 -22 -1 2 -9z"/>
<path d="M2636 6593 c-22 -3 -47 -10 -57 -16 -13 -10 0 -11 65 -9 44 2 86 8
91 14 7 6 0 7 -17 3 -18 -5 -28 -3 -28 4 0 6 -3 10 -7 9 -5 -1 -26 -3 -47 -5z"/>
<path d="M1346 6573 c-6 -14 -5 -15 5 -6 7 7 10 15 7 18 -3 3 -9 -2 -12 -12z"/>
<path d="M5865 6570 c3 -5 11 -10 16 -10 6 0 7 5 4 10 -3 6 -11 10 -16 10 -6
0 -7 -4 -4 -10z"/>
<path d="M2765 6560 c28 -12 37 -12 30 0 -3 6 -16 10 -28 9 -21 0 -21 -1 -2
-9z"/>
<path d="M1175 6452 c-129 -133 -128 -132 -116 -132 13 0 49 39 56 60 3 9 17
22 30 28 14 6 25 16 25 22 0 5 7 10 16 10 8 0 13 4 9 9 -3 6 7 21 22 35 29 27
43 32 43 16 0 -5 5 -10 11 -10 8 0 8 4 0 13 -7 10 -7 17 0 24 6 6 10 15 8 20
-2 4 -49 -38 -104 -95z"/>
<path d="M2405 6550 c-3 -6 1 -7 9 -4 18 7 21 14 7 14 -6 0 -13 -4 -16 -10z"/>
<path d="M2472 6535 c-58 -33 -98 -71 -128 -121 -34 -57 -30 -68 4 -13 35 54
103 115 157 139 22 10 33 19 25 19 -8 0 -34 -10 -58 -24z"/>
<path d="M2856 6520 c155 -88 221 -296 149 -465 -32 -76 -35 -85 -25 -85 6 0
10 6 10 14 0 8 8 30 19 48 33 57 45 156 30 240 -7 40 -12 82 -10 93 1 15 0 17
-7 7 -7 -11 -10 -10 -16 3 -3 9 -3 22 1 28 3 7 3 9 -2 5 -10 -9 -46 36 -43 53
2 7 -4 13 -13 14 -8 0 -26 11 -40 25 -24 26 -70 50 -92 50 -7 0 11 -13 39 -30z"/>
<path d="M4545 6540 c3 -5 8 -10 11 -10 2 0 4 5 4 10 0 6 -5 10 -11 10 -5 0
-7 -4 -4 -10z"/>
<path d="M5920 6530 c0 -5 5 -10 11 -10 5 0 7 5 4 10 -3 6 -8 10 -11 10 -2 0
-4 -4 -4 -10z"/>
<path d="M5945 6500 c3 -5 11 -10 16 -10 6 0 7 5 4 10 -3 6 -11 10 -16 10 -6
0 -7 -4 -4 -10z"/>
<path d="M3007 6460 c3 -11 7 -20 9 -20 2 0 4 9 4 20 0 11 -4 20 -9 20 -5 0
-7 -9 -4 -20z"/>
<path d="M4626 6463 c-6 -14 -5 -15 5 -6 7 7 10 15 7 18 -3 3 -9 -2 -12 -12z"/>
<path d="M6020 6440 c0 -5 5 -10 11 -10 5 0 7 5 4 10 -3 6 -8 10 -11 10 -2 0
-4 -4 -4 -10z"/>
<path d="M4245 6363 c-26 -7 -60 -31 -60 -43 0 -5 -9 -16 -20 -24 -28 -20 -27
-111 0 -148 28 -37 67 -59 85 -48 12 8 11 10 -5 10 -11 1 -35 13 -52 29 -25
21 -34 38 -39 72 -5 39 -2 48 26 84 17 22 39 43 48 47 26 10 95 9 112 -2 12
-8 12 -10 1 -10 -8 0 -12 -2 -9 -5 3 -3 15 -2 28 3 22 8 21 9 -13 25 -35 17
-63 19 -102 10z"/>
<path d="M1106 6333 c-6 -14 -5 -15 5 -6 7 7 10 15 7 18 -3 3 -9 -2 -12 -12z"/>
<path d="M2615 6335 c-24 -12 -25 -14 -5 -8 28 7 50 7 97 -2 41 -7 92 -77 94
-127 1 -19 3 -25 6 -15 15 60 -36 138 -104 156 -47 14 -51 13 -88 -4z"/>
<path d="M4231 6331 c-9 -6 -10 -11 -2 -15 6 -4 11 -3 11 3 0 6 16 10 35 9 19
-1 38 2 42 5 10 10 -70 8 -86 -2z"/>
<path d="M2252 6300 c0 -14 2 -19 5 -12 2 6 2 18 0 25 -3 6 -5 1 -5 -13z"/>
<path d="M2286 6298 c-17 -65 3 -231 32 -260 7 -7 12 -17 12 -23 0 -21 50 -78
97 -112 26 -19 48 -38 48 -43 0 -4 4 -12 9 -17 6 -5 6 -2 1 6 -6 10 -4 13 6 9
8 -3 42 -14 77 -24 41 -12 64 -25 68 -37 3 -10 3 -21 0 -24 -3 -3 -2 -13 3
-22 16 -32 23 -73 10 -65 -8 5 -9 3 -5 -5 5 -7 11 -10 14 -6 7 7 57 -204 106
-450 11 -52 34 -120 35 -105 2 10 -69 325 -116 521 l-47 195 -64 12 c-104 20
-192 92 -243 200 -35 73 -47 160 -31 230 10 43 -1 61 -12 20z"/>
<path d="M4401 6303 c-1 -6 4 -24 10 -40 14 -39 -6 -114 -30 -106 -12 4 -13 3
-3 -5 11 -7 5 -14 -23 -32 -39 -24 -42 -40 -3 -19 47 25 78 76 78 127 -1 27
-28 97 -29 75z"/>
<path d="M1007 6271 c-79 -89 -267 -343 -267 -361 0 -6 -4 -10 -8 -10 -5 0
-17 -18 -28 -40 -10 -22 -22 -40 -26 -40 -5 0 -8 -5 -8 -12 0 -6 -8 -20 -17
-30 -13 -15 -13 -18 -2 -13 8 3 30 31 49 61 19 31 43 68 52 83 10 14 27 43 38
64 11 20 25 37 30 37 6 0 10 5 10 11 0 15 46 69 54 62 8 -8 36 16 36 31 0 6
-5 3 -11 -6 -5 -10 -15 -18 -21 -18 -6 0 -2 12 8 28 25 39 37 49 52 44 7 -2
10 2 7 10 -3 8 14 36 39 64 40 43 54 64 43 64 -2 0 -15 -13 -30 -29z"/>
<path d="M2537 6271 c-22 -38 -22 -99 1 -133 58 -88 160 -102 228 -31 34 35
42 53 24 53 -5 0 -10 -4 -10 -8 0 -5 -10 -21 -23 -36 -26 -30 -80 -49 -119
-40 -32 6 -88 52 -88 71 0 7 -4 13 -10 13 -16 0 -12 68 6 101 20 40 13 47 -9
10z"/>
<path d="M2736 6265 c-9 -26 -7 -32 5 -12 6 10 9 21 6 23 -2 3 -7 -2 -11 -11z"/>
<path d="M4706 6245 c-9 -26 -7 -32 5 -12 6 10 9 21 6 23 -2 3 -7 -2 -11 -11z"/>
<path d="M2551 6234 c0 -11 3 -14 6 -6 3 7 2 16 -1 19 -3 4 -6 -2 -5 -13z"/>
<path d="M4654 6196 c-3 -14 -3 -29 0 -35 4 -6 2 -18 -3 -28 -6 -10 -19 -38
-29 -63 -29 -66 -85 -125 -160 -167 -59 -33 -76 -37 -152 -41 -77 -4 -121 2
-173 23 -12 5 -16 3 -12 -7 6 -16 10 -17 136 -24 113 -7 158 3 228 52 29 19
57 32 63 28 6 -4 8 -3 5 3 -4 6 5 24 21 41 15 16 35 45 45 66 9 20 24 51 32
69 9 18 13 40 10 49 -4 9 -2 19 4 23 14 8 14 35 1 35 -5 0 -12 -11 -16 -24z"/>
<path d="M3909 6180 c-3 -14 -1 -35 5 -47 7 -18 5 -28 -9 -43 -10 -12 -25 -18
-32 -15 -8 2 -11 0 -8 -5 6 -9 -16 -50 -42 -80 -17 -19 -103 -189 -103 -204 0
-6 -11 -33 -24 -61 -14 -27 -22 -54 -18 -59 3 -5 9 -1 13 10 4 10 20 51 34 89
44 114 105 223 157 280 l48 53 -8 53 c-6 39 -10 47 -13 29z"/>
<path d="M6240 6181 c0 -6 4 -13 10 -16 6 -3 7 1 4 9 -7 18 -14 21 -14 7z"/>
<path d="M2737 6145 c3 -8 9 -12 14 -9 12 7 11 11 -5 17 -10 4 -13 1 -9 -8z"/>
<path d="M4230 6140 c-9 -6 -10 -10 -3 -10 6 0 15 5 18 10 8 12 4 12 -15 0z"/>
<path d="M2261 6124 c0 -11 3 -14 6 -6 3 7 2 16 -1 19 -3 4 -6 -2 -5 -13z"/>
<path d="M2590 6130 c0 -5 5 -10 11 -10 5 0 7 5 4 10 -3 6 -8 10 -11 10 -2 0
-4 -4 -4 -10z"/>
<path d="M4278 6123 c7 -3 16 -2 19 1 4 3 -2 6 -13 5 -11 0 -14 -3 -6 -6z"/>
<path d="M4265 6090 c-4 -6 6 -10 22 -10 22 0 25 2 13 10 -19 12 -27 12 -35 0z"/>
<path d="M840 6021 c0 -5 7 -11 14 -14 10 -4 13 -1 9 9 -6 15 -23 19 -23 5z"/>
<path d="M3015 6010 c-3 -5 -1 -10 4 -10 6 0 11 5 11 10 0 6 -2 10 -4 10 -3 0
-8 -4 -11 -10z"/>
<path d="M4595 5969 c-4 -6 -5 -12 -2 -15 2 -3 7 2 10 11 7 17 1 20 -8 4z"/>
<path d="M2951 5965 c-1 -6 6 -38 15 -70 9 -33 29 -109 45 -170 16 -60 26 -90
23 -65 -3 25 -12 70 -20 101 -8 31 -12 72 -9 90 4 29 3 30 -4 9 l-9 -25 -1 26
c-1 14 -4 29 -8 33 -5 4 -13 24 -19 44 -7 20 -12 32 -13 27z"/>
<path d="M4610 5941 c0 -5 -10 -12 -22 -14 -22 -4 -22 -4 -2 -6 12 0 27 6 34
14 9 10 9 15 1 15 -6 0 -11 -4 -11 -9z"/>
<path d="M757 5873 c-4 -3 -7 -11 -7 -17 0 -6 5 -5 12 2 6 6 9 14 7 17 -3 3
-9 2 -12 -2z"/>
<path d="M2410 5876 c0 -2 7 -7 16 -10 8 -3 12 -2 9 4 -6 10 -25 14 -25 6z"/>
<path d="M4426 5851 c-4 -5 3 -7 14 -4 23 6 26 13 6 13 -8 0 -17 -4 -20 -9z"/>
<path d="M4117 5800 c-20 -27 -30 -47 -23 -44 8 3 22 17 31 31 9 13 19 22 22
19 3 -3 0 -14 -8 -23 -13 -16 -12 -17 4 -4 10 8 15 21 12 29 -3 8 0 21 6 28 6
8 7 14 2 14 -5 0 -25 -22 -46 -50z"/>
<path d="M3022 5810 c0 -14 2 -19 5 -12 2 6 2 18 0 25 -3 6 -5 1 -5 -13z"/>
<path d="M6560 5808 c0 -10 5 -18 10 -18 6 0 10 -7 10 -16 0 -9 -5 -12 -12 -8
-7 5 -8 3 -4 -5 5 -7 11 -10 14 -7 14 15 104 -155 96 -182 -4 -12 -3 -13 3 -4
7 9 15 0 31 -31 12 -25 22 -52 22 -61 0 -9 4 -16 9 -16 5 0 17 -22 26 -50 9
-27 21 -50 26 -50 5 0 9 2 9 5 0 2 -37 80 -81 171 -86 177 -159 301 -159 272z"/>
<path d="M690 5781 c0 -6 4 -13 10 -16 6 -3 7 1 4 9 -7 18 -14 21 -14 7z"/>
<path d="M607 5693 c-16 -30 -26 -57 -23 -60 6 -6 58 96 54 107 -2 4 -16 -17
-31 -47z"/>
<path d="M4035 5636 c-39 -102 -88 -267 -80 -274 6 -6 25 44 25 64 0 8 12 50
27 94 18 55 30 76 36 67 6 -8 7 -7 4 5 -7 20 11 90 21 84 4 -2 7 9 8 25 1 16
0 29 -2 29 -1 0 -19 -42 -39 -94z"/>
<path d="M3641 5654 c0 -11 3 -14 6 -6 3 7 2 16 -1 19 -3 4 -6 -2 -5 -13z"/>
<path d="M2641 5644 c0 -11 3 -14 6 -6 3 7 2 16 -1 19 -3 4 -6 -2 -5 -13z"/>
<path d="M3666 5642 c-8 -14 -28 -88 -62 -232 -31 -133 -32 -134 -40 -200 -6
-43 -9 -50 -14 -30 -4 15 -6 -2 -6 -40 0 -36 -8 -117 -18 -180 -32 -216 -62
-530 -71 -750 -8 -184 2 -134 15 80 19 304 45 544 92 835 11 72 22 137 23 145
1 8 5 22 8 30 11 33 71 296 68 304 -1 5 3 12 10 16 6 4 9 14 7 21 -3 10 -6 10
-12 1z"/>
<path d="M542 5573 c-12 -27 -30 -67 -41 -90 -11 -24 -17 -43 -12 -43 4 0 20
28 36 63 15 34 33 74 41 90 7 15 9 27 5 27 -4 0 -17 -21 -29 -47z"/>
<path d="M3044 5580 c4 -14 20 -88 36 -165 17 -77 37 -169 45 -205 7 -36 24
-120 37 -187 13 -68 27 -123 32 -123 4 0 5 7 2 16 -3 9 -9 34 -12 57 -3 23
-11 69 -19 102 -43 194 -74 342 -86 415 -6 36 -18 76 -26 90 l-14 25 5 -25z"/>
<path d="M4041 5554 c0 -11 3 -14 6 -6 3 7 2 16 -1 19 -3 4 -6 -2 -5 -13z"/>
<path d="M2671 5534 c0 -11 3 -14 6 -6 3 7 2 16 -1 19 -3 4 -6 -2 -5 -13z"/>
<path d="M3101 5537 c-1 -10 -5 -16 -10 -13 -5 4 -7 -4 -3 -16 l5 -22 9 24 c5
13 7 28 4 34 -2 6 -5 3 -5 -7z"/>
<path d="M5168 5488 c5 -5 16 -8 23 -6 8 3 3 7 -10 11 -17 4 -21 3 -13 -5z"/>
<path d="M536 5467 c3 -10 9 -15 12 -12 3 3 0 11 -7 18 -10 9 -11 8 -5 -6z"/>
<path d="M5125 5463 c-33 -8 -148 -79 -174 -107 -19 -20 -27 -23 -34 -14 -6 9
-7 8 -3 -5 3 -10 -4 -34 -17 -55 -30 -47 -47 -97 -47 -136 0 -25 -2 -28 -11
-16 -8 12 -9 10 -4 -7 8 -28 -11 -31 -20 -3 -5 16 -9 17 -20 7 -11 -10 -9 -14
8 -23 20 -11 20 -12 -4 -24 -13 -7 -31 -19 -39 -27 -8 -7 -36 -27 -62 -44 -57
-36 -182 -152 -210 -194 -11 -16 9 -1 44 35 88 90 203 179 289 224 33 17 37
24 41 66 11 112 94 225 205 280 205 100 448 -2 519 -219 12 -38 15 -74 12
-136 -3 -61 -1 -82 6 -75 14 14 13 154 -2 207 -14 49 -44 105 -72 135 -11 12
-16 26 -13 32 3 6 3 8 -2 4 -4 -4 -23 5 -42 19 -37 28 -38 45 -1 19 12 -9 27
-16 33 -16 5 0 -7 11 -27 25 -39 27 -53 31 -43 15 3 -5 1 -10 -5 -10 -10 0
-19 4 -78 33 -33 17 -176 22 -227 10z"/>
<path d="M4965 5430 c-3 -6 1 -7 9 -4 18 7 21 14 7 14 -6 0 -13 -4 -16 -10z"/>
<path d="M447 5365 c-15 -35 -27 -70 -27 -78 0 -7 -4 -17 -9 -22 -8 -9 -34
-82 -66 -182 -8 -24 -10 -43 -5 -43 4 0 13 19 19 43 16 65 35 117 44 117 5 0
5 4 2 10 -3 5 1 20 9 32 9 12 16 29 16 36 0 8 6 28 14 45 25 58 39 98 35 101
-2 3 -16 -24 -32 -59z"/>
<path d="M3992 5410 c0 -14 2 -19 5 -12 2 6 2 18 0 25 -3 6 -5 1 -5 -13z"/>
<path d="M3981 5364 c0 -11 3 -14 6 -6 3 7 2 16 -1 19 -3 4 -6 -2 -5 -13z"/>
<path d="M4885 5349 c-4 -6 -5 -12 -2 -15 2 -3 7 2 10 11 7 17 1 20 -8 4z"/>
<path d="M6800 5334 c0 -11 3 -24 7 -28 21 -21 90 -249 87 -287 -3 -33 -3 -33
4 -4 7 27 9 24 21 -35 14 -67 29 -105 37 -97 6 5 -5 42 -72 248 -49 153 -83
236 -84 203z"/>
<path d="M3937 5313 c-6 -34 7 -64 16 -39 4 10 3 15 -3 11 -6 -4 -7 6 -4 25 4
16 4 30 1 30 -2 0 -7 -12 -10 -27z"/>
<path d="M457 5310 c-3 -11 -3 -20 -1 -20 2 0 8 9 14 20 6 11 7 20 2 20 -6 0
-12 -9 -15 -20z"/>
<path d="M5565 5310 c3 -5 8 -10 11 -10 2 0 4 5 4 10 0 6 -5 10 -11 10 -5 0
-7 -4 -4 -10z"/>
<path d="M3532 5255 c0 -16 2 -22 5 -12 2 9 2 23 0 30 -3 6 -5 -1 -5 -18z"/>
<path d="M1430 5260 c-8 -5 -10 -10 -5 -10 6 0 17 5 25 10 8 5 11 10 5 10 -5
0 -17 -5 -25 -10z"/>
<path d="M1314 5252 c7 -11 -76 -24 -101 -16 -15 5 -16 4 -3 -5 10 -7 11 -11
3 -11 -7 0 -13 -4 -13 -10 0 -5 18 -3 40 5 72 25 130 27 207 7 49 -12 69 -14
62 -6 -5 7 -6 14 -2 16 4 3 2 3 -5 1 -13 -3 -120 11 -170 22 -13 3 -21 2 -18
-3z"/>
<path d="M3910 5178 c-6 -40 -15 -93 -20 -118 -13 -58 -58 -405 -64 -490 -3
-36 -12 -153 -20 -260 -8 -107 -18 -244 -21 -305 -7 -155 -18 -1231 -12 -1225
3 3 8 50 12 105 3 55 10 116 15 135 5 19 12 60 15 90 6 64 36 218 71 375 29
129 36 166 28 145 -3 -8 -9 -24 -14 -35 -13 -28 -50 -192 -50 -219 0 -12 -6
-46 -14 -76 -8 -30 -17 -73 -21 -95 -33 -220 -33 -219 -29 210 4 401 7 502 20
695 4 52 8 129 9 170 3 77 9 143 27 310 5 52 11 106 12 120 12 122 20 170 27
158 5 -7 6 1 3 22 -3 19 -1 62 5 95 5 33 17 98 25 145 8 47 17 93 21 103 4 9
3 17 -3 17 -6 0 -15 -33 -22 -72z"/>
<path d="M465 5219 c-4 -6 -5 -12 -2 -15 2 -3 7 2 10 11 7 17 1 20 -8 4z"/>
<path d="M5174 5220 c-11 -4 -34 -24 -52 -44 -78 -90 -12 -226 109 -226 24 0
50 4 57 8 7 5 -16 7 -50 4 -40 -2 -58 0 -50 6 10 7 9 12 -4 23 -16 12 -17 12
-11 -3 9 -26 -2 -22 -35 13 -25 25 -29 37 -24 63 5 24 3 27 -5 16 -8 -11 -9
-5 -5 25 6 46 72 115 109 115 46 0 96 -22 121 -51 38 -44 37 -122 -1 -161 -15
-15 -22 -28 -17 -28 16 0 46 41 56 77 10 38 -4 95 -31 124 -41 42 -116 60
-167 39z"/>
<path d="M6801 5220 c0 -8 3 -21 8 -28 7 -11 9 -10 14 3 4 9 3 13 -2 10 -5 -3
-12 3 -14 12 -3 13 -5 14 -6 3z"/>
<path d="M2748 5183 c5 -21 7 -23 10 -9 2 10 0 22 -6 28 -6 6 -7 0 -4 -19z"/>
<path d="M1137 5180 c-14 -11 -29 -20 -34 -21 -11 0 -51 -52 -59 -75 -4 -11 6
-3 22 17 16 20 49 51 74 68 24 17 39 31 33 31 -5 0 -22 -9 -36 -20z"/>
<path d="M1571 5169 c24 -17 52 -41 61 -53 10 -11 18 -15 18 -8 0 6 -9 21 -20
32 -11 11 -20 25 -20 32 0 6 -3 8 -6 5 -4 -3 -16 0 -28 8 -11 8 -27 15 -35 15
-8 0 6 -14 30 -31z"/>
<path d="M3161 5184 c0 -11 3 -14 6 -6 3 7 2 16 -1 19 -3 4 -6 -2 -5 -13z"/>
<path d="M5165 5170 c-10 -11 -15 -20 -11 -20 11 0 39 30 34 36 -3 2 -13 -5
-23 -16z"/>
<path d="M1630 5170 c0 -5 5 -10 10 -10 6 0 10 5 10 10 0 6 -4 10 -10 10 -5 0
-10 -4 -10 -10z"/>
<path d="M5300 5176 c0 -11 30 -39 36 -34 2 3 -5 13 -16 23 -11 10 -20 15 -20
11z"/>
<path d="M6831 5154 c0 -11 3 -14 6 -6 3 7 2 16 -1 19 -3 4 -6 -2 -5 -13z"/>
<path d="M3531 5134 c0 -11 3 -14 6 -6 3 7 2 16 -1 19 -3 4 -6 -2 -5 -13z"/>
<path d="M5290 5141 c0 -5 7 -12 16 -15 14 -5 15 -4 4 9 -14 17 -20 19 -20 6z"/>
<path d="M2806 5040 c3 -36 10 -69 16 -75 10 -10 4 34 -13 105 -6 25 -7 17 -3
-30z"/>
<path d="M1691 5030 c23 -45 32 -80 36 -134 l6 -74 71 -37 c91 -48 294 -181
326 -215 3 -3 43 -39 89 -80 127 -112 262 -265 347 -394 27 -39 52 -72 56 -74
4 -2 8 -8 8 -14 0 -14 82 -149 87 -144 3 3 -9 29 -26 58 -67 113 -71 123 -58
139 10 11 9 11 -4 1 -17 -13 -39 1 -39 25 0 7 -9 21 -21 32 -13 11 -18 24 -14
32 5 8 4 10 -3 5 -7 -4 -12 -4 -12 1 0 4 -15 24 -33 45 -67 76 -77 88 -77 99
0 8 4 8 14 0 10 -9 15 -8 19 2 4 10 -2 13 -21 11 -21 -2 -38 10 -89 64 -35 37
-63 70 -63 74 0 4 -14 15 -31 23 -19 11 -29 22 -25 31 7 18 -3 44 -16 44 -6 0
-5 -7 2 -15 7 -9 10 -18 7 -21 -6 -6 -77 47 -77 58 0 3 -16 16 -35 28 -19 12
-33 26 -30 31 4 5 0 6 -8 3 -8 -3 -18 -1 -22 5 -8 14 -112 81 -125 81 -6 0
-10 4 -10 9 0 6 -21 21 -48 34 -92 46 -136 78 -121 88 8 5 9 9 3 9 -6 0 -12
10 -12 23 0 47 -24 136 -43 158 -10 12 -19 28 -19 36 0 7 -4 13 -10 13 -5 0 4
-27 21 -60z"/>
<path d="M976 5025 c-3 -9 -6 -22 -5 -28 0 -7 5 -1 10 12 5 13 8 26 5 28 -2 2
-6 -3 -10 -12z"/>
<path d="M1002 5013 c-25 -64 -30 -106 -22 -185 8 -83 19 -120 53 -170 11 -15
15 -33 11 -40 -4 -7 -4 -10 1 -6 8 8 81 -51 78 -63 -1 -4 3 -6 10 -6 7 1 38
-12 71 -27 50 -24 70 -28 145 -29 87 0 171 16 171 33 0 15 135 -39 150 -60 3
-3 25 -16 50 -28 50 -25 80 -46 80 -56 0 -4 -10 -1 -22 5 -21 11 -22 11 -9 -5
8 -9 21 -14 29 -11 8 3 30 -6 49 -21 18 -14 38 -24 43 -22 16 5 -166 128 -261
175 l-90 45 -49 -21 c-61 -26 -186 -29 -257 -5 -100 34 -193 128 -227 228 -22
65 -22 189 -1 244 10 24 15 45 13 48 -3 2 -10 -8 -16 -23z"/>
<path d="M5290 5036 c0 -2 7 -7 16 -10 8 -3 12 -2 9 4 -6 10 -25 14 -25 6z"/>
<path d="M4640 5022 c0 -12 19 -26 26 -19 2 2 -2 10 -11 17 -9 8 -15 8 -15 2z"/>
<path d="M5182 5016 c7 -8 15 -12 17 -11 5 6 -10 25 -20 25 -5 0 -4 -6 3 -14z"/>
<path d="M312 4983 c-18 -65 -24 -110 -12 -91 11 18 33 119 27 125 -2 2 -9
-14 -15 -34z"/>
<path d="M1292 4989 c-84 -43 -104 -142 -42 -213 87 -99 235 -50 247 82 11
108 -105 182 -205 131z m116 -9 c38 -17 51 -29 66 -62 32 -75 6 -134 -78 -173
-30 -15 -42 -16 -57 -7 -10 7 -26 12 -35 12 -8 0 -21 6 -28 13 -76 76 -58 188
37 223 45 16 43 16 95 -6z"/>
<path d="M1348 4973 c6 -2 18 -2 25 0 6 3 1 5 -13 5 -14 0 -19 -2 -12 -5z"/>
<path d="M1246 4905 c-9 -26 -7 -32 5 -12 6 10 9 21 6 23 -2 3 -7 -2 -11 -11z"/>
<path d="M1451 4913 c-1 -6 -4 -20 -7 -30 -5 -17 -5 -17 6 0 6 10 9 23 6 30
-3 9 -5 9 -5 0z"/>
<path d="M1260 4876 c0 -8 4 -17 9 -20 5 -4 7 3 4 14 -6 23 -13 26 -13 6z"/>
<path d="M1241 4854 c0 -11 3 -14 6 -6 3 7 2 16 -1 19 -3 4 -6 -2 -5 -13z"/>
<path d="M1250 4826 c0 -2 7 -9 15 -16 13 -11 14 -10 9 4 -5 14 -24 23 -24 12z"/>
<path d="M1370 4790 c-8 -5 -12 -11 -10 -14 3 -2 14 2 24 10 22 15 10 19 -14
4z"/>
<path d="M3901 4974 c0 -11 3 -14 6 -6 3 7 2 16 -1 19 -3 4 -6 -2 -5 -13z"/>
<path d="M5572 4936 c-7 -20 -36 -61 -64 -91 -53 -58 -103 -91 -173 -112 l-40
-13 39 5 c41 4 110 36 138 64 9 9 23 21 30 27 33 28 66 73 72 99 6 23 9 26 17
14 10 -16 11 -2 0 24 -5 15 -9 12 -19 -17z"/>
<path d="M2817 4944 c-4 -4 -7 -21 -6 -38 1 -30 1 -30 9 -6 8 24 8 24 9 3 1
-13 5 -42 10 -65 24 -107 41 -198 46 -253 4 -33 11 -78 17 -100 6 -22 10 -69
10 -105 0 -43 3 -58 8 -45 7 15 9 9 10 -25 2 -25 2 -51 1 -57 -1 -7 3 -13 9
-13 6 0 8 -10 4 -24 -3 -14 -1 -33 6 -43 14 -23 9 32 -19 207 -11 69 -27 168
-35 220 -9 52 -23 131 -32 175 -9 44 -18 95 -20 114 -6 40 -17 64 -27 55z"/>
<path d="M3891 4914 c0 -11 3 -14 6 -6 3 7 2 16 -1 19 -3 4 -6 -2 -5 -13z"/>
<path d="M3192 4865 c0 -11 4 -33 8 -50 5 -22 9 -26 14 -14 4 8 0 31 -8 50
-10 21 -15 27 -14 14z"/>
<path d="M267 4798 c-11 -43 -14 -75 -8 -81 5 -5 12 -4 16 4 6 8 4 10 -5 4
-10 -6 -11 -1 -6 21 4 16 11 31 15 34 4 3 7 14 7 25 0 11 4 30 8 43 4 12 3 22
-1 22 -5 0 -17 -32 -26 -72z"/>
<path d="M5556 4854 c-9 -24 -2 -26 12 -4 7 11 8 20 3 20 -5 0 -12 -7 -15 -16z"/>
<path d="M6962 4840 c0 -14 3 -34 8 -45 l9 -20 -1 20 c0 11 -4 31 -8 45 l-8
25 0 -25z"/>
<path d="M5569 4813 c-13 -16 -12 -17 4 -4 9 7 17 15 17 17 0 8 -8 3 -21 -13z"/>
<path d="M1870 4790 c-8 -5 -10 -10 -5 -10 6 0 17 5 25 10 8 5 11 10 5 10 -5
0 -17 -5 -25 -10z"/>
<path d="M3441 4784 c0 -11 3 -14 6 -6 3 7 2 16 -1 19 -3 4 -6 -2 -5 -13z"/>
<path d="M3462 4780 c0 -14 2 -19 5 -12 2 6 2 18 0 25 -3 6 -5 1 -5 -13z"/>
<path d="M3902 4780 c0 -14 2 -19 5 -12 2 6 2 18 0 25 -3 6 -5 1 -5 -13z"/>
<path d="M4406 4787 c3 -10 9 -15 12 -12 3 3 0 11 -7 18 -10 9 -11 8 -5 -6z"/>
<path d="M4437 4792 c9 -6 -3 -30 -44 -84 -32 -42 -60 -73 -63 -69 -3 5 -11 3
-17 -5 -9 -9 -9 -15 -2 -19 7 -5 6 -12 -3 -22 -7 -8 -17 -25 -23 -37 -7 -11
-17 -20 -24 -18 -9 2 -10 -4 -6 -19 5 -16 4 -19 -5 -14 -9 5 -11 4 -6 -4 4 -6
0 -18 -8 -27 -9 -9 -16 -11 -16 -4 0 6 -5 8 -11 4 -8 -4 -7 -9 2 -15 11 -6 11
-12 0 -33 -8 -14 -19 -23 -24 -19 -6 3 -8 2 -4 -3 3 -5 -12 -45 -34 -89 -21
-44 -37 -70 -35 -57 2 12 0 20 -5 16 -5 -3 -9 -12 -9 -20 0 -9 -5 -12 -12 -8
-7 4 -8 3 -4 -5 4 -6 12 -9 17 -6 14 9 11 -2 -11 -45 -11 -22 -20 -44 -20 -50
0 -5 -9 -29 -19 -53 -37 -82 -132 -388 -130 -422 0 -11 7 3 14 30 21 82 51
174 90 280 20 55 44 123 54 150 45 123 182 384 250 475 14 19 31 43 36 52 6 9
30 42 53 72 41 52 47 76 19 76 -9 0 -9 -2 0 -8z"/>
<path d="M4939 4752 c-75 -50 -123 -91 -114 -100 10 -10 55 -10 48 0 -2 5 -14
6 -26 2 -20 -6 -20 -5 -8 10 8 9 20 15 28 12 8 -3 11 -1 8 4 -9 14 76 73 89
60 12 -12 53 -13 60 -2 3 5 -8 6 -25 4 -33 -5 -38 7 -10 25 14 9 23 9 39 -3
11 -7 51 -24 88 -38 55 -19 79 -22 119 -17 l50 7 -78 5 c-60 5 -91 13 -139 38
-33 17 -64 31 -67 30 -3 0 -31 -17 -62 -37z"/>
<path d="M960 4764 c0 -10 5 -26 10 -34 8 -11 9 -7 4 15 -8 37 -14 45 -14 19z"/>
<path d="M3211 4775 c-2 -23 57 -356 64 -363 4 -4 4 9 1 28 -3 19 -15 96 -27
170 -18 117 -36 197 -38 165z"/>
<path d="M6984 4735 c3 -22 11 -76 17 -120 10 -72 28 -133 29 -97 0 24 -41
246 -47 252 -3 3 -3 -13 1 -35z"/>
<path d="M2811 4734 c0 -11 3 -14 6 -6 3 7 2 16 -1 19 -3 4 -6 -2 -5 -13z"/>
<path d="M3241 4734 c0 -11 3 -14 6 -6 3 7 2 16 -1 19 -3 4 -6 -2 -5 -13z"/>
<path d="M5430 4740 c-9 -6 -10 -10 -3 -10 6 0 15 5 18 10 8 12 4 12 -15 0z"/>
<path d="M3262 4700 c0 -14 2 -19 5 -12 2 6 2 18 0 25 -3 6 -5 1 -5 -13z"/>
<path d="M235 4648 c-3 -24 -8 -55 -11 -70 -3 -16 -2 -28 3 -28 5 0 10 18 11
40 2 23 7 52 12 66 12 31 12 34 1 34 -5 0 -12 -19 -16 -42z"/>
<path d="M2115 4630 c-3 -5 -1 -10 4 -10 6 0 11 5 11 10 0 6 -2 10 -4 10 -3 0
-8 -4 -11 -10z"/>
<path d="M3461 4624 c0 -11 3 -14 6 -6 3 7 2 16 -1 19 -3 4 -6 -2 -5 -13z"/>
<path d="M4744 4588 c-47 -51 -85 -104 -78 -111 3 -3 -3 -10 -14 -16 -22 -11
-72 -84 -127 -183 -32 -55 -53 -99 -110 -222 -8 -17 -28 -67 -45 -111 -17 -44
-35 -89 -40 -100 -31 -69 -139 -492 -154 -610 -7 -56 8 -10 24 73 11 55 15 61
29 50 14 -12 14 -11 2 5 -16 20 -5 92 30 207 12 36 29 99 40 140 24 90 115
322 173 440 66 134 67 135 78 119 7 -10 7 -7 3 9 -5 16 3 38 30 77 20 31 40
53 46 50 5 -3 6 1 3 9 -3 9 5 21 20 31 14 10 26 23 26 30 0 7 7 12 16 11 9 0
19 6 21 14 4 13 3 13 -6 0 -5 -8 -13 -11 -17 -7 -4 4 0 15 9 25 10 10 17 22
17 25 0 4 17 22 38 42 20 19 32 35 27 35 -6 0 -24 -15 -41 -32z"/>
<path d="M4267 4593 c-10 -9 -9 -33 1 -33 4 0 8 9 8 20 0 23 0 22 -9 13z"/>
<path d="M3272 4560 c0 -14 2 -19 5 -12 2 6 2 18 0 25 -3 6 -5 1 -5 -13z"/>
<path d="M6992 4540 c0 -14 2 -19 5 -12 2 6 2 18 0 25 -3 6 -5 1 -5 -13z"/>
<path d="M216 4518 c-38 -183 -42 -649 -7 -913 12 -93 25 -172 28 -175 3 -3 2
24 -2 60 -4 36 -9 81 -10 100 -2 19 -5 42 -8 50 -3 8 -6 29 -6 45 -1 17 -3 77
-5 135 -3 65 -2 95 3 80 9 -24 9 -24 10 -2 1 12 -6 25 -15 29 -15 5 -16 24 -9
182 4 97 9 192 11 211 3 19 7 69 10 110 3 41 10 80 15 87 7 7 6 13 0 18 -6 3
-13 -4 -15 -17z"/>
<path d="M1557 4489 c7 -7 15 -10 18 -7 3 3 -2 9 -12 12 -14 6 -15 5 -6 -5z"/>
<path d="M7032 4460 c0 -25 3 -67 8 -95 7 -48 7 -49 8 -10 0 22 -3 65 -8 95
l-7 55 -1 -45z"/>
<path d="M3451 4464 c0 -11 3 -14 6 -6 3 7 2 16 -1 19 -3 4 -6 -2 -5 -13z"/>
<path d="M4171 4444 c0 -11 3 -14 6 -6 3 7 2 16 -1 19 -3 4 -6 -2 -5 -13z"/>
<path d="M2891 4414 c0 -11 3 -14 6 -6 3 7 2 16 -1 19 -3 4 -6 -2 -5 -13z"/>
<path d="M3271 4395 c0 -5 4 -39 9 -75 6 -36 12 -81 14 -100 2 -19 13 -109 25
-200 52 -409 100 -1099 101 -1442 0 -28 5 -48 11 -48 12 0 10 596 -3 665 -4
22 -5 -18 -4 -88 2 -71 2 -126 -1 -124 -4 4 -30 382 -32 472 0 22 -3 51 -6 64
-2 14 -9 81 -15 150 -6 69 -13 133 -15 141 -3 8 -7 58 -9 111 -3 52 -8 102
-11 111 -4 9 -13 72 -21 140 -8 67 -16 137 -18 153 -3 30 -24 88 -25 70z m156
-1577 c-2 -13 -4 -3 -4 22 0 25 2 35 4 23 2 -13 2 -33 0 -45z m0 -90 c-3 -8
-6 -5 -6 6 -1 11 2 17 5 13 3 -3 4 -12 1 -19z"/>
<path d="M4610 4358 c-12 -22 -12 -22 6 -6 10 10 15 20 12 24 -4 3 -12 -5 -18
-18z"/>
<path d="M1805 4340 c3 -5 11 -10 16 -10 6 0 7 5 4 10 -3 6 -11 10 -16 10 -6
0 -7 -4 -4 -10z"/>
<path d="M222 4300 c0 -14 2 -19 5 -12 2 6 2 18 0 25 -3 6 -5 1 -5 -13z"/>
<path d="M2892 4290 c0 -19 2 -27 5 -17 2 9 2 25 0 35 -3 9 -5 1 -5 -18z"/>
<path d="M1923 4273 c1 -14 9 -28 17 -30 13 -4 13 -3 0 6 -8 5 -11 13 -7 17 4
4 15 0 25 -9 10 -10 22 -17 27 -17 11 0 -25 39 -47 51 -14 8 -16 5 -15 -18z"/>
<path d="M7050 4276 c-3 -11 -2 -72 2 -135 4 -64 6 -133 3 -153 -2 -21 0 -38
6 -38 10 0 10 78 0 240 -3 58 -9 96 -11 86z"/>
<path d="M3351 4264 c0 -11 3 -14 6 -6 3 7 2 16 -1 19 -3 4 -6 -2 -5 -13z"/>
<path d="M2000 4231 c0 -4 14 -20 30 -36 17 -16 30 -25 30 -21 0 4 -13 21 -30
36 -16 15 -30 25 -30 21z"/>
<path d="M3322 4215 c0 -16 2 -22 5 -12 2 9 2 23 0 30 -3 6 -5 -1 -5 -18z"/>
<path d="M4531 4214 c0 -11 3 -14 6 -6 3 7 2 16 -1 19 -3 4 -6 -2 -5 -13z"/>
<path d="M212 4190 c0 -19 2 -27 5 -17 2 9 2 25 0 35 -3 9 -5 1 -5 -18z"/>
<path d="M2005 4170 c-3 -6 1 -7 9 -4 18 7 21 14 7 14 -6 0 -13 -4 -16 -10z"/>
<path d="M2080 4151 c16 -31 60 -79 60 -66 0 6 -17 28 -36 50 -23 26 -32 31
-24 16z"/>
<path d="M2963 4100 c0 -25 2 -35 4 -22 2 12 2 32 0 45 -2 12 -4 2 -4 -23z"/>
<path d="M4011 4114 c0 -11 3 -14 6 -6 3 7 2 16 -1 19 -3 4 -6 -2 -5 -13z"/>
<path d="M3831 4094 c0 -11 3 -14 6 -6 3 7 2 16 -1 19 -3 4 -6 -2 -5 -13z"/>
<path d="M2605 4090 c-3 -5 -1 -10 4 -10 6 0 11 5 11 10 0 6 -2 10 -4 10 -3 0
-8 -4 -11 -10z"/>
<path d="M4454 4075 c-4 -9 -4 -19 0 -22 3 -4 6 2 6 13 0 16 2 17 10 4 6 -9
10 -10 10 -3 0 19 -20 26 -26 8z"/>
<path d="M3446 4058 c-3 -13 -5 -79 -4 -148 l2 -125 6 145 c3 80 5 146 4 148
-1 1 -4 -8 -8 -20z"/>
<path d="M2176 4035 c9 -16 27 -39 38 -50 12 -11 40 -49 63 -85 23 -36 47 -71
53 -78 7 -7 9 -19 6 -27 -3 -10 0 -12 11 -8 12 5 14 1 8 -18 -4 -13 -4 -21 0
-17 10 10 46 -36 48 -61 0 -11 5 -17 9 -15 4 3 8 0 8 -7 0 -7 16 -44 36 -82
27 -52 34 -76 30 -100 -4 -22 -3 -26 2 -12 7 16 12 12 27 -30 10 -28 25 -59
33 -70 17 -23 17 -24 -37 113 -52 132 -126 272 -205 392 -63 94 -169 220 -130
155z"/>
<path d="M2970 4024 c0 -48 38 -336 46 -343 4 -3 4 14 0 39 -3 25 -13 108 -21
184 -15 134 -25 183 -25 120z"/>
<path d="M6538 3983 c12 -2 32 -2 45 0 12 2 2 4 -23 4 -25 0 -35 -2 -22 -4z"/>
<path d="M6813 3983 c15 -2 37 -2 50 0 12 2 0 4 -28 4 -27 0 -38 -2 -22 -4z"/>
<path d="M6368 3973 c6 -2 18 -2 25 0 6 3 1 5 -13 5 -14 0 -19 -2 -12 -5z"/>
<path d="M6728 3973 c6 -2 18 -2 25 0 6 3 1 5 -13 5 -14 0 -19 -2 -12 -5z"/>
<path d="M6350 3954 c-47 -8 -96 -16 -110 -18 -33 -6 -160 -41 -182 -51 -11
-4 -18 -3 -18 4 0 6 -5 11 -11 11 -6 0 -9 -7 -5 -15 3 -9 0 -15 -9 -15 -8 0
-15 -4 -15 -9 0 -6 30 1 68 14 37 13 126 36 197 51 109 23 156 27 290 28 163
0 255 -12 422 -55 88 -23 83 -23 83 0 0 24 -16 36 -26 20 -4 -8 -3 -9 4 -5 7
4 12 1 12 -8 0 -11 -6 -12 -27 -6 -62 19 -119 35 -138 37 -11 1 -67 9 -125 17
-128 19 -296 18 -410 0z"/>
<path d="M6808 3963 c6 -2 18 -2 25 0 6 3 1 5 -13 5 -14 0 -19 -2 -12 -5z"/>
<path d="M6035 3910 c27 -12 43 -12 25 0 -8 5 -22 9 -30 9 -10 0 -8 -3 5 -9z"/>
<path d="M2260 3882 c6 -13 14 -21 18 -18 3 4 -2 14 -12 24 -18 16 -18 16 -6
-6z"/>
<path d="M3813 3845 c0 -22 2 -30 4 -17 2 12 2 30 0 40 -3 9 -5 -1 -4 -23z"/>
<path d="M3931 3864 c0 -11 3 -14 6 -6 3 7 2 16 -1 19 -3 4 -6 -2 -5 -13z"/>
<path d="M2973 3815 c0 -22 2 -30 4 -17 2 12 2 30 0 40 -3 9 -5 -1 -4 -23z"/>
<path d="M211 3824 c0 -11 3 -14 6 -6 3 7 2 16 -1 19 -3 4 -6 -2 -5 -13z"/>
<path d="M2738 3808 c66 -119 175 -431 212 -605 47 -222 80 -474 80 -614 0
-57 1 -59 27 -59 l26 0 -7 273 c-6 275 -12 386 -26 532 -13 140 -11 5 5 -270
19 -341 20 -525 1 -525 -10 0 -14 20 -15 78 -4 140 -37 418 -58 480 -7 23 -12
46 -9 51 3 4 1 21 -4 37 -5 16 -18 65 -30 109 -32 129 -44 170 -51 175 -3 3
-11 26 -18 51 -10 37 -10 52 -1 69 7 12 7 20 2 16 -6 -3 -13 0 -16 6 -3 7 -3
2 0 -12 3 -14 -9 1 -25 33 -17 31 -31 62 -31 67 0 18 -61 140 -71 140 -5 0 -1
-15 9 -32z"/>
<path d="M5891 3820 c-42 -20 -71 -19 -41 0 8 6 10 10 4 10 -6 0 -17 -7 -24
-15 -10 -12 -10 -15 0 -15 7 0 1 -9 -14 -21 -14 -11 -30 -17 -36 -14 -5 3 -10
2 -10 -3 0 -6 -20 -22 -45 -36 -25 -15 -45 -31 -45 -37 0 -5 16 2 35 17 19 14
83 51 142 80 102 52 126 76 34 34z"/>
<path d="M3806 3769 c-8 -42 0 -50 9 -9 4 17 5 34 2 36 -2 3 -7 -10 -11 -27z"/>
<path d="M3426 3713 c-3 -27 -4 -100 -1 -163 4 -84 2 -111 -5 -100 -9 12 -10
10 -5 -8 4 -13 10 -45 15 -70 5 -31 8 28 9 171 0 119 -1 217 -3 217 -2 0 -6
-21 -10 -47z"/>
<path d="M5573 3616 c-114 -94 -293 -287 -293 -318 0 -5 26 24 59 64 66 82
188 203 274 272 32 25 54 46 48 46 -5 0 -44 -29 -88 -64z"/>
<path d="M5530 3655 c-8 -9 -8 -15 -2 -15 12 0 26 19 19 26 -2 2 -10 -2 -17
-11z"/>
<path d="M3023 3605 c0 -27 3 -81 7 -120 7 -68 7 -69 7 -15 0 30 -3 84 -7 120
-7 61 -7 62 -7 15z"/>
<path d="M3812 3625 c0 -16 2 -22 5 -12 2 9 2 23 0 30 -3 6 -5 -1 -5 -18z"/>
<path d="M6390 3610 c-57 -8 -150 -31 -229 -56 -63 -21 -235 -108 -221 -112 6
-2 21 3 35 12 18 12 25 12 28 3 3 -7 6 -6 6 4 1 9 8 20 17 23 23 9 36 7 29 -4
-4 -6 1 -7 11 -3 12 4 14 8 6 11 -17 5 4 32 25 32 8 0 29 6 46 14 163 71 469
95 652 51 11 -3 41 -9 66 -14 87 -18 269 -89 231 -91 -15 0 -6 -20 9 -20 6 0
7 5 4 10 -8 13 1 13 27 -1 17 -9 18 -13 7 -21 -10 -7 -7 -7 9 -3 17 5 37 -3
78 -31 59 -41 65 -48 32 -39 -20 5 -21 4 -5 -5 9 -6 22 -8 27 -5 5 3 21 -5 35
-19 14 -15 29 -26 32 -26 4 0 13 -7 22 -15 90 -84 92 -88 69 -99 -7 -3 -4 -4
7 -1 55 13 242 -289 289 -466 8 -30 18 -65 24 -79 34 -88 39 -321 11 -504 -16
-103 -149 -427 -157 -383 -2 9 4 28 13 44 l17 28 -22 -25 c-15 -17 -20 -32
-16 -51 3 -18 -1 -33 -15 -47 -10 -12 -19 -26 -19 -33 0 -6 -7 -8 -16 -5 -8 3
-12 2 -9 -4 3 -6 -1 -20 -9 -32 -9 -12 -16 -27 -16 -32 0 -6 14 10 32 35 18
24 35 46 38 49 9 8 59 95 90 158 48 98 88 227 104 335 53 351 -29 662 -246
948 -52 68 -179 199 -194 199 -3 0 -19 13 -36 29 -18 17 -43 36 -57 43 -15 7
-28 16 -31 19 -27 31 -251 126 -360 153 -141 34 -330 45 -470 26z"/>
<path d="M4298 3583 c5 -21 7 -23 10 -9 2 10 0 22 -6 28 -6 6 -7 0 -4 -19z"/>
<path d="M2972 3580 c0 -14 2 -19 5 -12 2 6 2 18 0 25 -3 6 -5 1 -5 -13z"/>
<path d="M5456 3584 c-23 -23 -20 -30 4 -9 11 10 20 20 20 22 0 7 -9 2 -24
-13z"/>
<path d="M5471 3563 c-7 -8 -11 -16 -8 -19 2 -2 10 2 17 11 17 20 9 27 -9 8z"/>
<path d="M3861 3544 c0 -11 3 -14 6 -6 3 7 2 16 -1 19 -3 4 -6 -2 -5 -13z"/>
<path d="M4276 3545 c-9 -26 -7 -32 5 -12 6 10 9 21 6 23 -2 3 -7 -2 -11 -11z"/>
<path d="M6870 3550 c8 -5 20 -10 25 -10 6 0 3 5 -5 10 -8 5 -19 10 -25 10 -5
0 -3 -5 5 -10z"/>
<path d="M2405 3539 c-4 -6 -4 -13 -1 -16 3 -4 6 0 6 8 0 11 2 11 10 -1 8 -13
10 -12 10 3 0 19 -15 23 -25 6z"/>
<path d="M3401 3534 c0 -11 3 -14 6 -6 3 7 2 16 -1 19 -3 4 -6 -2 -5 -13z"/>
<path d="M6238 3543 c7 -3 16 -2 19 1 4 3 -2 6 -13 5 -11 0 -14 -3 -6 -6z"/>
<path d="M6918 3533 c7 -3 16 -2 19 1 4 3 -2 6 -13 5 -11 0 -14 -3 -6 -6z"/>
<path d="M5364 3498 c0 -16 2 -16 18 -1 10 9 18 17 18 17 0 1 -8 2 -18 2 -10
0 -18 -8 -18 -18z"/>
<path d="M5392 3485 c-7 -8 -9 -15 -4 -15 5 0 15 7 22 15 16 19 -1 19 -18 0z"/>
<path d="M3841 3474 c0 -11 3 -14 6 -6 3 7 2 16 -1 19 -3 4 -6 -2 -5 -13z"/>
<path d="M7047 3459 c7 -7 15 -10 18 -7 3 3 -2 9 -12 12 -14 6 -15 5 -6 -5z"/>
<path d="M2496 3437 c3 -10 9 -15 12 -12 3 3 0 11 -7 18 -10 9 -11 8 -5 -6z"/>
<path d="M5300 3425 c-7 -9 -8 -15 -2 -15 5 0 12 7 16 15 3 8 4 15 2 15 -2 0
-9 -7 -16 -15z"/>
<path d="M5860 3399 c-215 -152 -384 -385 -474 -653 -27 -79 -28 -106 -4 -106
9 0 9 3 1 11 -11 11 -10 15 28 129 31 94 112 260 127 260 6 0 12 5 12 11 0 30
164 216 259 294 22 18 24 18 18 2 -4 -11 -3 -16 4 -12 6 4 8 13 5 20 -3 9 12
24 40 40 24 14 44 30 44 35 0 13 4 15 -60 -31z"/>
<path d="M240 3393 c0 -22 2 -25 10 -13 13 20 13 40 0 40 -5 0 -10 -12 -10
-27z"/>
<path d="M2933 3383 c2 -12 6 -26 10 -29 11 -11 8 19 -3 36 -8 12 -9 10 -7 -7z"/>
<path d="M5283 3353 c0 -9 4 -10 14 -2 7 6 13 12 13 14 0 1 -6 2 -13 2 -8 0
-14 -6 -14 -14z"/>
<path d="M251 3355 c0 -49 135 -514 154 -534 10 -10 17 9 8 21 -11 14 -86 241
-97 293 -4 17 -9 38 -13 49 -4 13 -1 17 8 12 8 -4 7 -2 -2 6 -8 7 -21 40 -28
73 -12 55 -30 104 -30 80z"/>
<path d="M301 3344 c0 -11 3 -14 6 -6 3 7 2 16 -1 19 -3 4 -6 -2 -5 -13z"/>
<path d="M3792 3340 c0 -14 2 -19 5 -12 2 6 2 18 0 25 -3 6 -5 1 -5 -13z"/>
<path d="M2561 3327 c-1 -10 3 -26 8 -35 14 -27 24 -95 13 -88 -6 4 -8 -3 -4
-16 5 -21 6 -21 12 -2 5 13 10 2 15 -39 4 -31 11 -60 16 -63 5 -3 9 -15 10
-27 0 -12 3 -16 6 -9 2 7 -9 65 -26 130 -34 132 -49 178 -50 149z"/>
<path d="M3427 3270 c3 -11 7 -20 9 -20 2 0 4 9 4 20 0 11 -4 20 -9 20 -5 0
-7 -9 -4 -20z"/>
<path d="M5252 3267 c-6 -7 -33 -53 -60 -101 -28 -50 -52 -82 -55 -75 -2 8 -5
0 -4 -18 0 -18 -7 -43 -16 -56 -39 -60 -108 -318 -128 -477 -15 -125 6 -462
31 -495 4 -5 15 -46 25 -90 10 -44 22 -84 27 -90 4 -5 8 -15 8 -22 0 -18 113
-250 145 -297 14 -21 24 -45 21 -52 -3 -8 0 -11 9 -8 15 6 39 -31 30 -46 -4
-6 -2 -9 2 -8 5 2 37 -29 71 -69 35 -39 68 -73 75 -76 7 -2 12 -25 12 -62 0
-39 4 -59 13 -61 7 -1 8 0 2 3 -17 8 -11 21 12 29 l22 7 -23 19 c-13 10 -21
21 -18 25 4 3 22 -8 41 -25 l35 -31 -57 -41 c-31 -22 -65 -39 -74 -36 -11 2
-15 -1 -11 -10 3 -9 -1 -14 -12 -14 -10 0 -13 5 -9 12 4 7 3 8 -4 4 -6 -4 -9
-13 -5 -21 3 -10 -1 -15 -15 -15 -12 0 -24 -5 -27 -10 -11 -17 -107 -60 -119
-53 -6 3 -8 3 -4 -2 4 -4 -3 -16 -15 -26 -12 -10 -19 -18 -16 -19 13 0 287
157 352 202 17 13 34 24 36 25 2 1 -14 17 -35 35 -21 18 -58 55 -83 82 -25 27
-56 59 -67 72 -12 13 -37 44 -55 71 -19 26 -36 50 -39 53 -30 29 -125 214
-173 335 -120 303 -130 706 -25 1035 38 121 143 334 191 390 9 11 13 20 8 20
-5 0 -13 -6 -19 -13z"/>
<path d="M4222 3250 c0 -14 2 -19 5 -12 2 6 2 18 0 25 -3 6 -5 1 -5 -13z"/>
<path d="M4202 3220 c0 -14 2 -19 5 -12 2 6 2 18 0 25 -3 6 -5 1 -5 -13z"/>
<path d="M4160 3179 c0 -6 -7 -59 -16 -116 -8 -58 -13 -112 -11 -121 2 -10 9
29 17 86 7 57 17 105 22 108 11 7 10 42 -2 49 -5 3 -10 1 -10 -6z"/>
<path d="M5136 3174 c-4 -9 -4 -19 -1 -22 2 -3 7 3 11 12 4 9 4 19 1 22 -2 3
-7 -3 -11 -12z"/>
<path d="M2591 3114 c0 -11 3 -14 6 -6 3 7 2 16 -1 19 -3 4 -6 -2 -5 -13z"/>
<path d="M3000 3097 c0 -14 5 -29 10 -32 7 -4 8 3 4 22 -9 38 -14 42 -14 10z"/>
<path d="M7405 3030 c-11 -5 -47 -9 -80 -9 -86 -1 -84 1 -328 -252 -119 -123
-135 -136 -164 -134 -22 1 -30 -2 -26 -12 6 -15 23 -18 23 -3 0 6 5 10 10 10
6 0 10 -4 10 -8 0 -15 -141 -153 -150 -147 -5 3 -7 0 -5 -7 7 -17 -60 -82 -74
-73 -6 3 -10 2 -9 -4 4 -14 -35 -71 -49 -71 -6 0 -13 -4 -15 -9 -7 -21 -231
-250 -239 -245 -5 3 -6 -2 -3 -11 5 -12 23 2 76 57 38 40 127 132 196 203 70
72 197 204 282 293 382 399 385 402 468 402 22 0 56 -7 77 -16 22 -9 34 -10
30 -4 -4 6 -17 15 -29 20 -19 8 -19 9 7 9 15 1 27 6 27 11 0 12 -8 12 -35 0z"/>
<path d="M383 3015 c-3 -9 -3 -18 -1 -21 3 -3 8 4 11 16 6 23 -1 27 -10 5z"/>
<path d="M2644 2980 c18 -147 36 -331 36 -382 l0 -57 -102 -4 -103 -3 111 -2
112 -2 -5 93 c-5 107 -40 398 -50 406 -3 3 -3 -19 1 -49z"/>
<path d="M5041 3004 c0 -11 3 -14 6 -6 3 7 2 16 -1 19 -3 4 -6 -2 -5 -13z"/>
<path d="M3022 2980 c0 -14 2 -19 5 -12 2 6 2 18 0 25 -3 6 -5 1 -5 -13z"/>
<path d="M5065 2989 c-4 -6 -5 -12 -2 -15 2 -3 7 2 10 11 7 17 1 20 -8 4z"/>
<path d="M7600 2981 c0 -6 4 -13 10 -16 6 -3 7 1 4 9 -7 18 -14 21 -14 7z"/>
<path d="M7460 2955 c0 -2 7 -10 15 -19 9 -8 20 -40 27 -70 17 -86 -1 -119
-139 -262 -65 -66 -206 -212 -313 -323 -107 -111 -239 -248 -293 -304 -54 -56
-153 -160 -220 -230 -139 -146 -181 -176 -253 -178 -44 -2 -42 -3 21 -9 39 -4
72 -6 74 -4 2 2 -4 4 -14 4 -12 0 -2 11 27 30 25 17 68 55 94 86 28 32 54 52
62 49 7 -3 10 0 7 6 -12 18 15 37 50 35 24 -2 32 0 28 10 -6 16 -23 19 -23 4
0 -5 -4 -10 -10 -10 -20 0 -9 17 47 73 42 42 59 54 66 44 6 -8 7 -6 3 7 -5 14
22 47 116 143 68 68 147 149 176 181 42 45 55 54 62 42 5 -8 12 -11 17 -7 4 5
1 12 -7 17 -12 7 -11 13 9 34 13 14 30 22 40 19 10 -3 12 -2 4 4 -8 6 4 24 39
61 39 41 53 50 60 40 7 -9 8 -8 4 6 -6 19 25 60 38 50 3 -2 4 -1 1 3 -8 10 66
83 77 77 5 -3 7 -1 6 4 -2 5 8 20 22 34 116 113 148 174 134 257 -5 25 -7 54
-6 64 1 10 -3 15 -8 12 -6 -3 -10 -2 -10 3 0 6 -7 12 -15 16 -8 3 -15 4 -15 1z"/>
<path d="M5506 2937 c3 -10 9 -15 12 -12 3 3 0 11 -7 18 -10 9 -11 8 -5 -6z"/>
<path d="M5051 2914 c0 -11 3 -14 6 -6 3 7 2 16 -1 19 -3 4 -6 -2 -5 -13z"/>
<path d="M4115 2845 c-4 -42 -5 -79 -2 -81 2 -3 8 29 12 71 4 42 5 79 2 81 -2
3 -8 -29 -12 -71z"/>
<path d="M7632 2908 c-7 -7 -12 -17 -12 -22 0 -6 5 -4 10 4 9 13 11 13 20 0 5
-8 10 -10 10 -5 0 6 -4 16 -8 22 -6 10 -11 10 -20 1z"/>
<path d="M3041 2894 c0 -11 3 -14 6 -6 3 7 2 16 -1 19 -3 4 -6 -2 -5 -13z"/>
<path d="M7601 2894 c0 -11 3 -14 6 -6 3 7 2 16 -1 19 -3 4 -6 -2 -5 -13z"/>
<path d="M2642 2860 c0 -14 2 -19 5 -12 2 6 2 18 0 25 -3 6 -5 1 -5 -13z"/>
<path d="M4142 2860 c0 -14 2 -19 5 -12 2 6 2 18 0 25 -3 6 -5 1 -5 -13z"/>
<path d="M7050 2865 c-19 -22 -8 -25 13 -3 9 10 13 18 8 18 -5 0 -14 -7 -21
-15z"/>
<path d="M4132 2805 c0 -16 2 -22 5 -12 2 9 2 23 0 30 -3 6 -5 -1 -5 -18z"/>
<path d="M451 2703 c44 -106 180 -376 187 -369 6 7 -8 44 -21 58 -22 23 -156
302 -157 326 0 2 4 1 8 -2 4 -2 9 7 10 22 l1 27 -13 -23 c-12 -23 -13 -23 -25
17 -6 23 -16 41 -21 41 -4 0 10 -44 31 -97z"/>
<path d="M447 2779 c4 -13 8 -18 11 -10 2 7 -1 18 -6 23 -8 8 -9 4 -5 -13z"/>
<path d="M4151 2784 c0 -11 3 -14 6 -6 3 7 2 16 -1 19 -3 4 -6 -2 -5 -13z"/>
<path d="M7690 2791 c0 -6 4 -13 10 -16 6 -3 7 1 4 9 -7 18 -14 21 -14 7z"/>
<path d="M5421 2764 c0 -11 3 -14 6 -6 3 7 2 16 -1 19 -3 4 -6 -2 -5 -13z"/>
<path d="M7697 2746 c-4 -10 -3 -15 3 -11 6 3 10 1 10 -6 0 -7 3 -10 6 -6 3 3
2 13 -4 22 -8 16 -9 16 -15 1z"/>
<path d="M4097 2661 c-4 -51 -6 -96 -3 -98 7 -8 18 98 14 147 -2 33 -5 20 -11
-49z"/>
<path d="M5406 2725 c-9 -26 -7 -32 5 -12 6 10 9 21 6 23 -2 3 -7 -2 -11 -11z"/>
<path d="M7496 2699 c-12 -23 -12 -28 -2 -20 12 11 29 51 21 51 -2 0 -10 -14
-19 -31z"/>
<path d="M4986 2694 c-4 -14 -5 -28 -3 -31 3 -2 8 8 11 23 4 14 5 28 3 31 -3
2 -8 -8 -11 -23z"/>
<path d="M6887 2704 c3 -7 9 -14 14 -14 14 0 10 17 -5 23 -10 4 -13 1 -9 -9z"/>
<path d="M4982 2620 c0 -14 2 -19 5 -12 2 6 2 18 0 25 -3 6 -5 1 -5 -13z"/>
<path d="M5346 2598 c-3 -18 -8 -89 -12 -158 -14 -265 65 -539 219 -757 l44
-62 -1 69 c-1 37 -4 66 -7 64 -4 -2 -5 -22 -4 -44 1 -22 -1 -40 -5 -40 -8 0
-50 66 -49 77 0 3 -4 9 -9 12 -9 6 -52 85 -52 96 0 3 5 3 10 0 6 -3 10 -1 10
4 0 6 -8 11 -19 11 -14 0 -25 18 -45 74 -14 41 -29 89 -32 105 -4 17 -10 31
-14 31 -4 0 -10 24 -13 53 -4 28 -11 79 -16 112 -9 64 -7 253 4 336 8 54 1 68
-9 17z"/>
<path d="M7406 2584 c-5 -14 -4 -15 9 -4 17 14 19 20 6 20 -5 0 -12 -7 -15
-16z"/>
<path d="M2458 2513 c4 -21 2 -25 -12 -20 -12 5 -16 1 -16 -16 0 -17 2 -19 9
-8 8 12 11 10 16 -10 3 -13 4 -378 3 -812 -2 -433 0 -787 5 -787 4 0 7 378 7
840 0 463 -4 840 -9 840 -4 0 -6 -12 -3 -27z"/>
<path d="M4188 2533 l112 -4 0 -929 c0 -852 1 -930 16 -930 50 0 421 104 499
140 11 5 49 20 85 33 119 44 210 90 210 106 0 11 -3 11 -14 -4 -10 -13 -25
-19 -52 -18 -24 0 -32 -2 -21 -6 15 -5 11 -10 -20 -23 -90 -39 -160 -67 -193
-76 -19 -6 -66 -22 -105 -36 -38 -14 -81 -23 -95 -20 -20 3 -21 3 -6 -4 16 -7
10 -11 -30 -20 -27 -6 -74 -18 -104 -27 -41 -12 -61 -13 -79 -5 -13 6 -26 8
-29 6 -3 -3 6 -10 19 -15 l24 -10 -25 -1 c-14 0 -35 -3 -48 -6 l-22 -6 0 913
c0 503 0 922 0 932 0 15 -11 17 -117 15 l-118 -2 113 -3z"/>
<path d="M7315 2520 c-10 -11 -15 -20 -11 -20 11 0 39 30 34 36 -3 2 -13 -5
-23 -16z"/>
<path d="M7335 2500 c-16 -17 -16 -20 -3 -15 9 4 19 13 22 21 7 19 2 18 -19
-6z"/>
<path d="M6645 2469 c-11 -16 -1 -19 13 -3 7 8 8 14 3 14 -5 0 -13 -5 -16 -11z"/>
<path d="M606 2447 c3 -10 9 -15 12 -12 3 3 0 11 -7 18 -10 9 -11 8 -5 -6z"/>
<path d="M7259 2423 c-13 -16 -12 -17 4 -4 16 13 21 21 13 21 -2 0 -10 -8 -17
-17z"/>
<path d="M2435 1645 c0 -418 1 -588 2 -377 2 211 2 553 0 760 -1 207 -2 35 -2
-383z"/>
<path d="M5685 2389 c3 -4 -1 -9 -7 -12 -7 -2 -10 -7 -7 -11 3 -3 20 1 38 10
46 23 137 15 179 -15 18 -12 32 -18 32 -13 0 5 -12 18 -27 28 -22 15 -48 19
-120 20 -51 1 -90 -2 -88 -7z"/>
<path d="M5890 2396 c0 -2 7 -7 16 -10 8 -3 12 -2 9 4 -6 10 -25 14 -25 6z"/>
<path d="M7169 2358 c-17 -24 -18 -29 -6 -19 18 14 42 51 33 51 -3 0 -15 -15
-27 -32z"/>
<path d="M5638 2343 c-24 -28 -40 -78 -35 -109 4 -26 4 -25 6 7 0 20 12 53 26
74 27 39 29 58 3 28z"/>
<path d="M664 2280 c28 -48 163 -248 189 -281 12 -14 29 -36 37 -49 31 -46 70
-92 70 -83 0 6 -9 22 -20 36 -11 14 -20 29 -20 34 0 5 -11 19 -25 31 -14 13
-23 28 -19 34 4 6 3 8 -3 5 -13 -8 -156 201 -147 215 5 7 2 8 -6 3 -10 -6 -12
-4 -7 9 5 11 3 15 -5 10 -8 -5 -9 -1 -4 12 4 10 4 15 0 12 -10 -10 -37 20 -31
35 3 7 -3 13 -13 13 -15 0 -15 -3 4 -36z"/>
<path d="M5975 2283 c83 -75 182 -167 242 -224 53 -49 63 -56 74 -43 10 12 10
17 0 27 -10 9 -11 8 -6 -5 12 -30 -6 -20 -69 40 -71 66 -75 72 -44 65 13 -3
20 -3 17 1 -3 3 -19 8 -36 10 -37 4 -82 44 -63 56 9 6 6 10 -9 15 -11 3 -21
11 -21 16 0 6 -4 8 -9 4 -6 -3 -29 13 -53 35 -24 22 -47 40 -53 40 -5 0 8 -17
30 -37z"/>
<path d="M6060 2310 c0 -5 5 -10 11 -10 5 0 7 5 4 10 -3 6 -8 10 -11 10 -2 0
-4 -4 -4 -10z"/>
<path d="M6500 2305 c-7 -9 -11 -17 -8 -20 2 -2 12 4 21 15 9 11 13 20 8 20
-5 0 -14 -7 -21 -15z"/>
<path d="M4973 2245 c0 -38 2 -53 4 -32 2 20 2 52 0 70 -2 17 -4 1 -4 -38z"/>
<path d="M6030 2291 c0 -6 4 -13 10 -16 6 -3 7 1 4 9 -7 18 -14 21 -14 7z"/>
<path d="M770 2221 c0 -6 4 -13 10 -16 6 -3 7 1 4 9 -7 18 -14 21 -14 7z"/>
<path d="M6419 2213 c-13 -16 -12 -17 4 -4 16 13 21 21 13 21 -2 0 -10 -8 -17
-17z"/>
<path d="M5601 2170 c0 -14 9 -42 22 -62 23 -39 104 -114 113 -105 3 3 -15 22
-41 43 -53 45 -75 76 -86 119 -6 27 -7 28 -8 5z"/>
<path d="M4981 2144 c0 -11 3 -14 6 -6 3 7 2 16 -1 19 -3 4 -6 -2 -5 -13z"/>
<path d="M4961 2134 c0 -11 3 -14 6 -6 3 7 2 16 -1 19 -3 4 -6 -2 -5 -13z"/>
<path d="M6326 2127 c3 -10 9 -15 12 -12 3 3 0 11 -7 18 -10 9 -11 8 -5 -6z"/>
<path d="M6927 2100 c-9 -11 -13 -20 -8 -20 11 0 35 29 29 35 -2 2 -12 -4 -21
-15z"/>
<path d="M4992 2065 c0 -16 2 -22 5 -12 2 9 2 23 0 30 -3 6 -5 -1 -5 -18z"/>
<path d="M5605 2080 c3 -5 11 -10 16 -10 6 0 7 5 4 10 -3 6 -11 10 -16 10 -6
0 -7 -4 -4 -10z"/>
<path d="M6247 2069 c7 -7 15 -10 18 -7 3 3 -2 9 -12 12 -14 6 -15 5 -6 -5z"/>
<path d="M865 2049 c-4 -6 -5 -12 -2 -15 2 -3 7 2 10 11 7 17 1 20 -8 4z"/>
<path d="M5620 2045 c7 -8 17 -15 22 -15 6 0 5 7 -2 15 -7 8 -17 15 -22 15 -6
0 -5 -7 2 -15z"/>
<path d="M7711 2044 c0 -11 3 -14 6 -6 3 7 2 16 -1 19 -3 4 -6 -2 -5 -13z"/>
<path d="M5600 2021 c0 -5 7 -12 16 -15 14 -5 15 -4 4 9 -14 17 -20 19 -20 6z"/>
<path d="M6847 2009 c7 -7 15 -10 18 -7 3 3 -2 9 -12 12 -14 6 -15 5 -6 -5z"/>
<path d="M7690 2011 c0 -6 4 -13 10 -16 6 -3 7 1 4 9 -7 18 -14 21 -14 7z"/>
<path d="M5765 1953 c0 -15 7 -28 15 -30 13 -4 13 -3 0 6 -8 5 -11 13 -7 17 4
4 15 0 25 -9 10 -10 22 -17 26 -17 7 0 -2 10 -40 42 -19 17 -20 17 -19 -9z"/>
<path d="M6775 1960 c-17 -18 -17 -20 -2 -14 18 7 24 -11 7 -19 -6 -3 -5 -4 2
-3 10 2 21 56 13 56 -1 0 -10 -9 -20 -20z"/>
<path d="M5490 1900 c6 -11 12 -20 14 -20 2 0 2 9 -1 20 -3 11 -9 20 -15 20
-5 0 -4 -9 2 -20z"/>
<path d="M5840 1902 c0 -6 15 -22 33 -36 17 -15 62 -56 98 -91 121 -119 224
-205 244 -204 14 0 16 2 5 6 -8 3 -26 14 -39 25 -19 15 -197 177 -245 223 -50
49 -96 86 -96 77z"/>
<path d="M6680 1849 c0 -5 5 -7 10 -4 6 3 10 8 10 11 0 2 -4 4 -10 4 -5 0 -10
-5 -10 -11z"/>
<path d="M1006 1805 c15 -20 29 -33 31 -31 7 6 -29 54 -45 60 -7 3 -1 -10 14
-29z"/>
<path d="M5041 1804 c0 -11 3 -14 6 -6 3 7 2 16 -1 19 -3 4 -6 -2 -5 -13z"/>
<path d="M5923 1781 c0 -9 9 -17 19 -17 10 0 18 1 18 1 0 0 -9 8 -19 17 -18
16 -20 15 -18 -1z"/>
<path d="M1070 1733 c25 -32 40 -37 48 -15 2 7 -2 10 -12 6 -21 -8 -20 5 2 23
15 13 15 13 -6 3 -18 -9 -27 -8 -40 2 -9 7 -5 -1 8 -19z"/>
<path d="M5551 1751 c-8 -5 -9 -11 -3 -15 5 -3 12 1 16 9 6 17 6 18 -13 6z"/>
<path d="M7530 1730 c0 -5 5 -10 11 -10 5 0 7 5 4 10 -3 6 -8 10 -11 10 -2 0
-4 -4 -4 -10z"/>
<path d="M6010 1700 c0 -5 5 -10 11 -10 5 0 7 5 4 10 -3 6 -8 10 -11 10 -2 0
-4 -4 -4 -10z"/>
<path d="M6530 1701 c0 -5 7 -11 14 -14 10 -4 13 -1 9 9 -6 15 -23 19 -23 5z"/>
<path d="M1190 1608 c120 -119 185 -176 173 -153 -6 11 -8 27 -6 35 4 13 3 13
-6 0 -10 -13 -14 -12 -30 8 -11 12 -23 22 -28 22 -4 0 -19 16 -33 35 -14 19
-32 37 -40 40 -8 3 -26 21 -40 40 -14 18 -36 39 -50 45 -14 7 13 -26 60 -72z"/>
<path d="M6084 1631 c0 -11 5 -17 13 -14 10 4 11 9 2 19 -15 18 -15 18 -15 -5z"/>
<path d="M5631 1583 c61 -83 236 -222 369 -294 225 -122 504 -166 772 -119
105 18 245 61 307 95 43 24 5 17 -55 -10 -31 -14 -62 -25 -69 -25 -6 0 -25 -7
-42 -15 -35 -18 -265 -55 -339 -55 -28 0 -80 3 -115 7 -56 6 -60 8 -34 15 24
6 22 6 -10 3 -49 -5 -169 12 -173 26 -2 5 -7 7 -12 4 -13 -8 -162 50 -153 60
4 4 3 5 -4 1 -14 -8 -155 68 -223 121 -27 21 -61 46 -75 56 -19 13 -24 25 -21
40 3 12 3 16 0 10 -8 -18 -27 -16 -21 1 4 10 1 13 -8 10 -14 -6 -36 13 -69 59
-10 15 -23 27 -29 27 -5 0 -4 -8 4 -17z"/>
<path d="M7446 1589 c2 -5 11 -6 19 -2 19 7 19 -11 1 -26 -11 -9 -15 -9 -19 1
-4 9 -6 9 -6 1 -2 -33 38 -21 59 16 7 13 2 16 -25 17 -19 0 -32 -3 -29 -7z"/>
<path d="M6263 1543 c15 -2 39 -2 55 0 15 2 2 4 -28 4 -30 0 -43 -2 -27 -4z"/>
<path d="M6273 1523 c9 -2 23 -2 30 0 6 3 -1 5 -18 5 -16 0 -22 -2 -12 -5z"/>
<path d="M7413 1504 c-18 -14 -36 -23 -40 -21 -5 3 -9 -6 -9 -18 -2 -22 2 -21
42 17 40 37 49 48 42 48 -2 0 -18 -12 -35 -26z"/>
<path d="M1405 1410 c16 -16 30 -28 33 -25 4 4 -47 55 -56 55 -3 0 7 -13 23
-30z"/>
<path d="M5838 1433 c7 -3 16 -2 19 1 4 3 -2 6 -13 5 -11 0 -14 -3 -6 -6z"/>
<path d="M7322 1424 c-12 -8 -27 -12 -32 -9 -6 3 -10 0 -10 -7 -1 -18 -48 -51
-62 -42 -6 4 -8 3 -5 -3 8 -13 -20 -26 -35 -16 -7 4 -8 1 -3 -7 6 -10 3 -12
-14 -7 -19 5 -20 3 -9 -11 11 -13 10 -15 -7 -10 -15 4 -21 0 -21 -12 0 -14 8
-12 50 13 74 43 189 126 176 127 -3 0 -16 -7 -28 -16z"/>
<path d="M1450 1386 c0 -22 180 -157 355 -268 141 -89 275 -160 268 -143 -2 7
-25 20 -49 30 -25 9 -54 26 -65 38 -10 11 -19 18 -19 14 0 -7 -117 59 -143 81
-18 16 -43 31 -87 54 -14 7 -33 21 -44 32 -15 15 -16 20 -5 28 10 7 8 8 -8 3
-14 -4 -34 2 -57 17 -39 25 -49 45 -13 27 19 -10 19 -8 -5 15 -30 29 -48 35
-27 9 17 -20 5 -16 -43 17 -21 14 -38 31 -38 38 0 6 -4 12 -10 12 -5 0 -10 -2
-10 -4z"/>
<path d="M5310 1370 c0 -5 5 -10 11 -10 5 0 7 5 4 10 -3 6 -8 10 -11 10 -2 0
-4 -4 -4 -10z"/>
<path d="M1584 1352 c-9 -5 -8 -10 1 -19 11 -10 13 -9 12 7 -1 11 -1 20 -2 20
0 0 -5 -4 -11 -8z"/>
<path d="M6188 1263 c7 -3 16 -2 19 1 4 3 -2 6 -13 5 -11 0 -14 -3 -6 -6z"/>
<path d="M6895 1260 c-13 -5 -14 -9 -5 -9 8 0 24 4 35 9 13 5 14 9 5 9 -8 0
-24 -4 -35 -9z"/>
<path d="M6150 1250 c8 -5 20 -10 25 -10 6 0 3 5 -5 10 -8 5 -19 10 -25 10 -5
0 -3 -5 5 -10z"/>
<path d="M2100 956 c0 -7 113 -57 117 -52 2 2 -21 16 -53 30 -59 27 -64 29
-64 22z"/>
<path d="M5005 950 c-13 -6 -15 -9 -5 -9 8 0 22 4 30 9 18 12 2 12 -25 0z"/>
<path d="M5050 945 c0 -9 6 -12 15 -9 8 4 15 7 15 9 0 2 -7 5 -15 9 -9 3 -15
0 -15 -9z"/>
<path d="M5125 950 c-3 -6 1 -7 9 -4 18 7 21 14 7 14 -6 0 -13 -4 -16 -10z"/>
<path d="M2170 947 c0 -3 15 -10 32 -16 18 -6 28 -7 23 -2 -12 10 -55 25 -55
18z"/>
<path d="M2235 892 c10 -10 212 -92 228 -92 4 0 7 5 7 10 0 6 -7 10 -15 10 -9
0 -55 16 -103 36 -106 43 -131 51 -117 36z"/>
<path d="M2398 863 c7 -3 16 -2 19 1 4 3 -2 6 -13 5 -11 0 -14 -3 -6 -6z"/>
<path d="M2455 840 c3 -5 8 -10 11 -10 2 0 4 5 4 10 0 6 -5 10 -11 10 -5 0 -7
-4 -4 -10z"/>
<path d="M4630 790 c8 -5 20 -10 25 -10 6 0 3 5 -5 10 -8 5 -19 10 -25 10 -5
0 -3 -5 5 -10z"/>
</g>
</svg>
